<svg xmlns="http://www.w3.org/2000/svg" id="Layer_1" version="1.1" viewBox="0 0 749 741">
  <!-- Generator: Adobe Illustrator 29.8.3, SVG Export Plug-In . SVG Version: 2.1.1 Build 3)  -->
  <defs fill="#ffffff">
    <style>
      .st0 {
        opacity: .85;
      }

      .st1 {
        fill: none;
        stroke: #e6b85c;
        stroke-miterlimit: 10;
      }

      .st2 {
        fill: #adade0;
      }

      .st3 {
        fill: #e6b85c;
      }

      .st4 {
        fill: #a8a8ea;
      }
    </style>
  </defs>
  <g>
    <path class="st2" d="M283.33,302.19c1.5-.12,6.95,1.76,7.19,2.95.16,1.34-1.45,1.21-1.95,2.12-1.01,1.85-.44,3.76-3.28,5.38,4.54.3,5.83-7.89,8.84-9.14.78-.32,1.3.19.97.97-.59,1.37-4.29,3.13-3.91,5.56l1.31-1.97c2.36,1.97,6.41-5.78,8.17-5.86.76,1.16,2.55,4.4.65,5.22l-1.31-2.6-3.59,3.59.99,1.62c1.53.6,1.14-2.99,2.61-1.31l1.63,6.54c-2.05-.2-3.7.36-3.94,2.62-1.78-1.72-2.96-1.2-5.14-.58-1.14,3.46,1.1,2.93,2.16,4.54,8.47,12.87,8.64,35.4,11.65,50.49,1.74,8.73,3.86,19.66,5.88,28.12,1.77,7.4,6.41,14.59,7.07,23.01.19,2.4.36,12.06-2.97,11.99-1.73-.93-2.3-6.11-2.29-8.05s1.48-3.56,1.31-5.19c-.03-.26-1.93-4.59-2.11-4.78-1.71-1.84-4.13,1.53-4.42-.5-.23-1.65,3.07-2.43,3.26-3.3.15-.69-1.19-1.58-1.3-2.59-.15-1.39,1.14-3.33.67-5.08-.16-.6-1.37-.62-1.84-1.56-1.1-2.22-.11-5.09-2.71-7.14l1.29-1.87c-2.57-2.93-1.11-4.24-1.37-7.12-.39-4.29-4.28-8.81-3.24-13.5l-1.29,1.95c.06-1.67-2.21-2.57-2.53-3.73-.4-1.47.53-2.62.36-3.68-.57-3.68-.36-3.9-.5-7.25-.35-8.28-9.1-12.46-9.12-21.56,0-.34-3.22-5.08-3.28-5.41-.25-1.33.85-2.75.66-4.14l-1.3.66c-.08-1.76.23-5.31-.63-6.78-.43-.73-1.55-.23-1.85-.52-.44-.43-.33-5.53-3.4-5.13-1.01,1.18,4.76,16.91,5.59,19.58,1.96,6.31,4.16,12.9,5.7,19.15,2.72,11.1,2.96,21.75,5.34,32.58,2.63,11.96,10.33,20.42,10.12,34.36-.13,8.31-2.92,17.22-4.56,25.39-1.55,2.25-10.95.09-14.52,1.83-1.42.69-9.14,8.86-9.52,10.13-.68,2.26,1.39,4.8,3.35,5.6,1.6.65,7.39-.46,7.66-.18v3.92c4.81-2.01,4.21,1.33,5.89,2.29.94.54,6.51,1.71,8.03,2.33.76.31.42,1.9,2.44,1.26.66-1.84-1.7-1.29-1.93-2.32-.05-.24,1.26-4.53,1.42-4.72.46-.55,4.2-1.24,5.08-2.76l-.65,3.26c3.07-.53,2.71,2.39,3.46,3.09.4.38,1.49.16,2.07.84.47.55.36,1.76,1.01,2.32.56.49,9.78.28,10.47-.37l-.66-1.29c2.33.42,3.15-1.73,3.93-2.18,5.54-3.21,5.42-.96,9.18-7.16,1.61-2.66.66-2.03,1.46-4.56.67-2.13,2-4.16,3.13-6.08l-2.66-4.23,2.32-.62.3-5.28,1.3.66c.66-1.01-2.11-5.82-3.14-6.86,2.46-5.23,12.09-3.09,9.08-11.07,1.34-3.47-.03-10.64,4.5-11.9,2.03-.57,2.13,1.95,3.95-2.56.77-1.9-4.03-.52-4.57-.97l.65-2.61c-1.41.93-8.38,1.42-7.84-.97.94-.35,3.31-3.38,3.65-3.46.94-.21,2.15.91,3.53-.8l.33,1.96,3.58-4.29-.29-.96c-2.91-1.54-4.19-3.04-3.62-6.53-2.27,1.17-3.53-.34-2.61-2.61h-2.19c-2.39-3.83,3.56-3.13,4.85-4.36s3.43-4.82,1.26-6.09c2.56-.31,2.19-2.47,2.8-3.74.15-.3,1.25-.33,1.5-1.45.48-2.15-1.56-3.58-1.74-5.61-.21-2.38,1.15-4.64,1.39-7.17.45-4.74-.9-9.37-.68-14.09h-6.54c.99,1.19,1.43,3.31,2.18,4.36.45.63,2.18.96,2.36,1.93.17.88-1.62,2.1-1.81,3.33-.23,1.47,1,3,.42,4.96-.54,1.83-3.87,4.26-4.38,1.36-.14-.78,2.05-2.45,1.13-5.03-.13-.37-3.03-2.86-3.85-4.05-.42-.62-.01-1.46-.09-1.51-.44-.32-1.72-.07-2.23-.72-.39-.49.27-1.52.14-2.22-.12-.63-.9-1.05-.78-1.77.29-1.63,2.56-2.52,3.68-3.56.65-.6,1.36-3.91,1.95-.37l2.59-1.27v2.62s6.45-.1,6.45-.1l.74-2.52c-1.73-.63-1.07,1.17-1.73,1.31-1.39.3-3.31-.2-4.8-.01l3.26-6.52c-2.26.25-1.03-2.51-1.33-4.23-.19-1.1-1.12-2.11-1.17-2.76-.08-1.09,2.03-2.03.33-4.59-.29-.43-1.48-.51-1.68-1.26-.3-1.09,1.57-3.25-1.19-4.05-3.39-.98-5.16,1.68-7.85,2.35-1.02.25-9.01,1.14-9.34.8-.38-2.3.34-3.47,1.89-5.01l.05-1.15c-2.06-.62-2.33-4.06-3.86-4.6-2.31-.81-5.76,2.24-5.26-4.93l3.54,1.28c.66-.2.74-1.48,1.53-1.93,1.11-.63,9.94-4.33,10.97-4.55,3.29-.71,3.77,1.48,6.83,1.94l1.67-4.58c.81-.22,1.35.19,1.97.61,1.79,1.2.83,3.55,2.9,3.31v-5.89c2.94.79,4.58-1.88,7.19-.65.29-1.52-.11-1.04-.84-1.45-1.51-.85-5.72-2.17-6.73-3.08-.87-.78-.68-2.01-1.09-2.49-.7-.8-5.38-1.88-1.81-4.75l1.31,1.96c-.8-2,1.2-3.71,1.34-4.96.17-1.6-2.06-2.8-1.25-5.08.36-1.01,1.84-1.1,2.22-1.74.18-.3,1.75-3.62,2.12-4.39,1.59-3.34,2.78-7.77,4.1-11.3,1.38-.24-.17,2.62,1.62,1.95,1.99-.74,1.45-4.82,3.93-5.23,2.97-.49-1.49,5.38-1.94,5.93-.95,1.17-3.48,1.99-3.62,4.2l4.58-2.93-1.31,3.92h1.96s-1.31,1.96-1.31,1.96c5.78-.23,1.71,3.1,1.96,3.27h2.61c-.62-3.95,2.45-6.5,2.64-10.45,3.56-.71,2.61,5.19,6.13,3.37l.73.54c.93,1.32-3.09,6.37,3.73,2.57.74-.41.83-3.14,2.22.07,2.6.78,3.35-2.42,4.46-3.97.66-.92,1.88-1.53,2.63-2.64s-.35-3.19,2.63-3.23c2.35,5.05-3.31,5.75-3.59,9.81,1.79.23,1.35-1.53,2.9-2.09,2.37-.85,3.86,1.33,5.52-1.72,1.02-1.87,1.99-9.11,4.01-4.35.18,1.26-1.2.32-1.37,2.56-.25,3.44,1.71,2.6,1.36,5.61l5.22-7.84c-.67,1.57,1.21,2.06,1.29,2.43.2.84-.68,6.29,1,5.42,3.37-3.79,5.37-2.84,3.61-9.15l4.57,5.88.66-7.19h1.96s.06,2.58.06,2.58l1.41.04c2.32,2.23-1.74,2.99-1.47,4.23l2.62,3.61c2.02-.23,3.38-6.48,4.29-6.59,1.43-.17,2.79,2.11,4.85.7-.04,1.07-.1,2.69.99,3.27,1.85.97-.13-3.51,2.28-2.61-.33,2.92.2,5.21,1.32,7.84l.65-2.61h3.53s.71,1.31.71,1.31l1.63-1.31v3.92c2.05.19,2.06-1.74,1.97-3.27l3.86,1.93,1.7-2.58,1.96,3.92,1.95-2.5,1.95,1.2c2.47-1.95-.66-4.35-.96-6.54.91-.96,3.37,3.05,3.28,3.92l2.6-1.3-.36,1.97.77.59c3.75-.65,7.44-.82,7.44,3.97l-3.89-.06-.04-1.9c-.95.59-2.08.11-2.95.62-2.96,1.76.26,2.61-.41,4.79-.28.94-1.93,1.78-1.88,3.09l-1.29-2.61c.35,2.32-2.08.45-4.09.76-.85.13-4.22,1.62-4.42,2.32l-1.3,7.37,2.61-2.34,1.63,1.02.67-.63c.07-1.94,1.02-3.32,1.58-4.99.3-.9-.43-3.65,1.96-2.18.72.45,1.03,4.89.05,5.84l3.92-1.3-5.22,18.3c.48.55,2.67-1.79,3.01-2.22,1.39-1.76,2.28-6.05,4.83-4.33-3.02-3.05-.64-3.78,0-7.18l1.29,1.3c1.79-2.22.3-6.2,3.25-6.57l-1.22-5.14c2.28-.11,3.12-.75,4.19-2.66l2.62,6.51c2.15-1.14,1.67-8.27,2.2-8.86.72-.8,4.53-1.75,5.65-3.55,1.57,2.35-1.04,2.8-1.45,3.44-.58.91.08,2.84-1.49,3.09l-1.31-1.96-2.62,8.5,2.55.07.72,4.51,2.61-1.3c.63.83-2.21,4.5.65,3.92l3.61-11.1,1.05,7.52c.2,1.29-1.38,2.26-1.41,3.23,0,.31,3.46,3.53,4.6,3.62-.22-1.71.42-4,2.62-3.92l.66,5.88c2.96-1.53,2.24-6.54,2.61-9.49.11-.89.46-2.08,1.3-.97.2,1.49-.31,3.39.02,4.78.12.5,1.17.4,1.28.89s-.04,6.49.99,6.09c1.31-.78.43-1.46.44-2.33.05-4.62.21-7.34.53-11.73.04-.49-1.57-8.33.66-6.2l.73,5.85,1.89.04-.64,13.73,2.59-4.27c4.37.02.61,2.68.62,3.25.04,2.8,2.01,3.1,2.06,3.41.23,1.76-1.74,2.9,1.21,3.59-.89,1.95.96,6.98,3.33,5.78v3.27s2.62-1.96,2.62-1.96v7.84c2.88.21,2.71-3.47,5.89-2.61l-1.3,2.29c1.29,1.55,2.71-2.39,2.94-2.29.34,1.12,3.04,2.86,3.28,3.27.48.82-.35,1.79-.05,2.63,2,5.59,2.6,3.21,7.06,4.09,3.24.64,3.47,3.22,5.49,4.32.7.38,6.81,3.12,7.26,3.25,1.63.48,3.59-.92,5.41.11.16,2.85-2.42,4.34-1.3,7.18l5.22-1.96-2.61,7.19,5.22-.65c.59,2.77-1.83,2.15-3.2,3.57.54.88.73,2.4,1.52,3.04.43.35,5.32.61,5.79.48,1.09-.3,1.36-1.91,3.44-1.94,1.2-.02.81,1.23,1.41,1.37.82.19,2.31-.28,2.73.1.23.2.05,1.33.43,1.85.52.71,1.56.49,2.06.89.55.44.63,1.43,1.19,1.75,1.6.89.37-2.29,1.62-1.95.19,3.12,2.55,1.86,3.63,2.55,1.14.73,1.7,2.79,2.54,3.38,2.49,1.74,1.36.66,3.66,2.85,1.67,1.6,4.38,1.98,6.17.36l3.3,4.57,1.64-3.25.7,1.9,2.56.06-1.32-3.59,1.31-.99c.66.96,1.16,4.73,1.46,5.09s2.78.56,3.78,2.43l-.66,1.32,5.23.96c.5-.55-1.12-3.95,1.31-3.27-.63,2.75,1.46,4.11,2.01,6.53,2.65-1.33,4.77,1.23,6.17,3.29l3.59-1.97-2.61,3.91,2.64-.97,1.28.65-1.34.66c-.38,2.17,2.51,3.03,3,4.26.42,1.06-.53,2.15-.24,3.41.32,1.42,3.57,6.19,4.39,8.1,5.43,12.63,4.81,22,5.28,35.26.11,2.99,1.25,6.24.67,9.45l-1.95.32,1.87.43c1.8,5.68-.93,4.6-3.8,6.81-.73.57-4.8,3.92-4.94,4.21-.72,1.45-1.39,9.22-.89,10.7,2.51,1.86,4.05.37,5.51,4.27,1.54.26,3.75-1.63,4.67-1.74,1.06-.13,1.79.96,2.47.95,1.02-.03,3.2-2.81,4.03-2.96s1.7.87,2.62.98c2.62.31,8.27-.2,9.09,1.58l4.87-1.36c.64-2.64-2.22-2.68-3.12-4.39-1.97-3.78,1.35-6.99,5.08-7.37l-.66,1.3h2.62c-.79-2.25.97-3.96,1.19-5.53s-.51-7.77-1.33-8.71c-.34-.39-3.06-.5-3.13-2.75,2.21.12,2.38-2.22,5.24-1.32-.04-2.31-.42-5.33-.34-7.54.05-1.25.99-2.48,1.03-3.93.1-3.59-2.42-11.85-2.66-16.41-.01-.27,1.28-1.68.98-4.8-.17-1.84-.22-4.02-.39-5.5-.42-3.62-1.55-7.22-1.89-10.86,2.51-.35,1.9,2.58,3.26,3.26-.07-.44.53-6.97,1.96-5.23l1.35,6.51,1.27-.63.05,1.9,6.49-.59c-.14-2.63-1.92-2.48-3.92-1.96l1.97-5.22c1.23-.21.3,1.25.76,1.83.56.71,5.47.65,5.13,2.74l1.3-.99-1.31-3.58c2.82.54,3.73,1.7,3.33,4.55l1.91.36-1.96.98v1.96c1.02-.06,2.76-.07,3.26.99.78,1.69-2.25.3-1.95,1.62,3.69-.79,1.64,5.02,1.94,6.83.24,1.45,1.7,1.96,1.84,2.72s-.65,1.96-.52,3.15c.16,1.41,2.28,3.54.36,5.62-.61.68.64,1.42,1.27,1.3,2.33-.48,2.55-8.23,3.09-9.99,2.6-8.47,4.67-16.27,4.46-25.61-.05-2.16-1.51-3.98-1.65-5.26-.19-1.73.62-4.2.28-6.5-.71-4.85-7.78-17.22-11.42-20.62-12.41-11.64-23.18-19.29-33.95-33.41-6.5-8.52-19.37-25.72-21.15-35.75-.36-2-1.28-6.27-1.45-7.75-.16-1.35.76-2.55.53-3.72s-2.54-3.62-3-5.53c-4.85-20.23-4.47-36.57-20.76-51.83-3.64-3.41-7.48-6.32-11.23-9.37-4.93-4.02-4.43-8.11-12.58-9.97-14.89-3.4-30.17-6.44-45.49-8.13-41.75-4.61-84.06-5.41-125.24-13.39l-41.17-13.43c-.15-1.21,1.33-.52,1.99-.36,13.21,3.19,26.5,9.51,39.43,12.89,23.29,6.09,45.16,5.66,68.76,7.75,12.68,1.12,25.28,3.35,37.94,4.57,21.78,2.09,36.52,1.85,58.16,7.52,6.11,1.6,8.55-.01,14.12,5.21,3.29,3.08,5.25,5.12,8.83,8.17,2.06,1.76,2.34,4.15,4.19,5.62,1.31,1.04,2.82,1.08,3.93,1.96,3.94,3.12,13.54,18.39,14.86,22.96.28.98-.11,4.1.27,5.73,1.9,8.12,3.95,16.6,6,24.73.43,1.71,2.79,4.04,2.99,4.88.25,1.05-.66,2.11-.57,3.13.11,1.22,1.37,1.68,1.77,2.72.58,1.52-.66,4.59-.44,6.38.55,4.5,2.73,6.89,4.71,10.39,1.53,2.71,3.09,6.97,4.82,9.57,3.45,5.19,6.64,7.1,10.17,13.37s10.04,10.13,14.01,14.75c1.32,1.53,2.36,4.46,3.77,5.73,1.31,1.17,4.4,2.18,6.02,3.46,2.88,2.28,7.04,6.77,10.08,9.54,4.35,3.96,6.84,9.14,9.32,14.22,3.03,6.2,4.86,10.67,5.13,17.75.55,14.43-1.48,24.92-7.05,38.13-.69,1.64.48,4.36-2.76,5.11-1.38.32-2.8-.79-4.61.65l-3.4-7.42-10.13-5.27c-1.39-.21-2.49,3.24-4.77,2.17l-.62.69c1.92,8.26,1.63,16.46,1.98,24.82-3.48,6.51,1.07,13.14-2.16,20.12-.73,1.57-2.14,1.44-2.45,2.29-.97,2.66-.31,5.97-.28,8.69-.46.58-2.1.83-2.91.91-5.16.5-9.82-.62-14.16-.66-1.78-.01-4.18,1.99-6.06,2.21-2.16.25-4.21-1.09-5.85-1.03-1,.04-1.65,1.19-2.39,1.09-.8-.12-1.84-2.05-2.68-2.58-1.13-.71-2.93-.62-3.69-1.54-1.95-2.36,1.66-6.86-4.83-7s-13.53.28-20.12-1.4c-1.71-.44-3.81-2.31-6.1-2.4-.46-.35-2-3.83-2.11-4.49-.41-2.54.42-8.64,2.13-10.66,2.91-3.45,10.47-2.74,11.53-4.33,2.13-4.31,1.73-9.59,2.86-13.98.63-2.45,2.5-3.84,2.84-5,.81-2.8.07-12.27-.7-15.38-1.87-7.6-9.86-15.22-15.86-20.1-8.57-6.97-15.07-5.98-24.78-9.23-16.13-5.39-23.85-10.13-35.68-21.89-.57-.56-1.85-.92-1.9-1.02-.17-.28,1.25-1.63-.06-2.87s-8.06-4.32-10.42-5.95c-2.93-2.02-7.86-5.6-10.22-8.09-5.19-5.5-8.68-17.76-17.23-19.28-2-.36-15.53.03-18.01.36-2.97.4-6.87,2.36-10.06,3.02-12.29,2.54-24.92,4.13-36.77,7.05-14.18,3.48-26.36,8.15-40.85,9.5-3.78.35-7.98,1.09-11.75,1.33-6.99.44-13.85-2.43-17.86,5.03-4.55,8.47-2.16,17.27-2.43,26.27-.03.86-.86,1.34-.73,2.7.24,2.51,2.53,2.27,3.56,4.32-.75,2.4-2.01,4.73-2.34,7.26-1,7.76.46,16.79.48,24.69.02,10.35-1.44,7.02-4.86,14.1-.48,1-.24,2.33-.7,3.23-.51.98-1.79,1.02-2.12,1.43-.54.68.4,5.38.32,6.58-.01.18-.97,3.31-1.08,3.46-.83,1.07-3.06,1.43-3.23,1.71-.46.75.14,2.91-.14,4.12-.45,1.96-1.65,3.83-1.9,5.96-.27,2.26,2.8-.19,3.24.29l-1.31,7.19-3.26-2.61c.49,3.54-1.56,4.81-2.45,7.04-1.81,4.55-.47,11.66-5.45,15.48-5.46,4.2-15.25,5.39-21.9,4.98-1.67-.1-3.92-1.66-6.42-1.14-1.7.35-2.1,1.76-4.64,1.82-4.71.1-8.19-3.03-11.96-4.47-5.15-1.96-11.23-2.58-15.23-7-.16-.18-2.42-3.87-2.48-4.11-1.04-3.68,8.6-11.43,11.03-14.23l13.63-1.08c1.47-9.88,4.93-20.22,3.32-30.29-1.51-9.42-7.4-18.95-9.62-27.65-2.57-10.03-2.65-22.15-4.89-32.38-1.03-4.7-3.29-9.26-4.65-13.57-4.14-13.16-2.46-19.82-13.5-30.41-4.6-4.42-3.66-2.85-7.29-8.4-1.13-1.72-5.77-6.3-6.1-6.98-2.56-5.29-7.52-16.73-11.68-20.69-.42-.4-1.71-.28-2.11-.82-.47-.64.9-8.49-.94-10.51l-1.95.66c-1.13-2.38,1.02-3.49-.05-6.02-.27-.65-1.14-.6-1.44-1.34-2.49-6.11-2.78-6.61-6.27-12.03-2.25-3.5-1.19-3.22-1.41-6.36-.16-2.33-2.69-5.63-2.61-7.21.07-1.42,1.54-2.74,1.83-4.13.43-2.07-1.79-14.16-2.5-16.82-.2-.73-1.91-5.81-2.08-6.1-.31-.53-1.88-.44-2.28-1.87-1.2-4.3-2-12.21-2.74-16.99-1.4-8.98-1.47-15.14-1.34-24.09.04-2.95-.09-5.91-.03-8.86-2.46.11-4.98-.19-7.44.09-3.62.41-8.06,3.15-10.52,3.2-3.02.06-16.82-3.93-19.03-5.86-2.84-2.49-4.49-3.9-7.44-6.29-6.01-4.87-10.33-9.76-2.98-15.98l.64,1.95c1.17-1.32,5.72-3.72,7.19-3.66,1.85.08,4.33,3.24,5.73,3.83s4.14.22,4.79,1.11c-.75,3.56.4,2.76.89,3.8.34.72.27,1.77.63,2.34.62,1,8.02,2.2,1.36,3.71l.67,1.95c2.02-.91,6.19-2.98,8.18-3.27,1.29-.18,1.02.25.97,1.3l-4.92,1.96.68,1.32,8.16-2.62c-.59,2.56-1.84,3.54-3.92,4.91l1.07,1.58c.53.15,6.52-.75,7.29-1.05,1.62-.62,5.06-3.99,8.14-3.65,2.04-.8,9.29-5.6,10.68-5.73,1.13-.1,1.99.39,2.57,1.33l.97,5.88.03-3.24c1.57,0,3.44.04,3.24-1.98-1.7.85-4.51-3.41-3.92-3.93l7.89-.29.68-6.22,1.89-.04-1.31-1.95c3.55.76,5.25-2.58,8.7-.53,1.04.62,1.26,1.79,2.16,2.41,1.82,1.26,5.67,1.99,5.49,5.3,1.37-.97,2.75-2.46,4-3.52.43-.37,1.47-.25,1.73-.55.36-.42.3-2.91,1.46-3.77l-1.88.57c-.41-2.32-2.8-1.98-4.65-2.54-.03-1.33,2-.17,2.53-1.71.18-.52.24-2.6.01-2.82l-1.81-.1-.1-2.23,1.98-.65c-1.33-1.08-6.2-2.57-2.61-3.92-1.68-.44-7.55-6.12-6.53-7.53l1.18.48,1.02-1.06,3.68,1.25-.66,1.95,3.91-.66c-.22,1.81,6.45,8.15,7.63,8.31.88.11,2.08-.8,2.87-.19l1.6,2.99,1.96-1.96,1.31,1.96c1.76-1.46,3.46-1.82,2.95-4.58,1.84,1.14,3.37-.81,5.22-1.3v5.88s-.97-1.96-.97-1.96c-1.49.76-.61,3.31-1.1,3.84-.17.19-3.73,1.57-4.31,2.23-1.77,2-4.6,6.83-6.74,8.59-2.75,2.27-10.25,4.49-13,7.27-3.57,3.59-8,11.79-12.03,15.76-2.5,2.46-6.73,4.61-9.26,7.42-2.72.04,1.45-2.58.02-3.91-2,.94-2.77,3.47-4.93,4.22-1.35.47-2.42.12-3.44.38-.43.11-.83,2.19-3.05,1.27-.81-3.55-1-6.44-.72-10.1l2.01-.68c-2.02-2.3-5.1-1.58-7.84-1.63,1.6,2.16,2.24,7.45,2,10.13-.77,8.64-.63,15.32.65,24.16,1.75,12.08,7.4,23.41,8.95,35.51.56,4.41-.44,7.1-1.13,11.28h2.6s-1.34,1.02-1.34,1.02c1.43,2.94.04,7.45,1.37,10.23.71,1.48,3.65,1.64,3.88,1.88.19.21-.52,1.27-.27,1.92s1.41,1.22,1.76,2.12c1.58,4.09,2.59,7.93,4.1,12.24,1.17,3.34,3.72,5.11,2.28,9.17l1.31-.33.06,2.25,1.9.04c-1.19,1.55.36,1.09.58,1.73,1.27,3.66,1.34,2.26,2.52,4.27.15.25-.48,1.26-.2,1.84,2.09,4.25,2.73,5.69,6.15,7.92.32.21,1.69,5.95,2.42,7.09,1.21,1.9,5.11,1.85,4.3,5.2l1.74.16,2.18,5.04,2.52-.88c-2.38-1.25-1.05-2.71-1.62-4.18-1.64-4.25-5.18-4.31-5.46-4.74-.25-.39-.09-2.21-.7-3.55-.92-2.03-3.28-2.85-3.66-3.51-.35-.6.64-2.37.38-3.51-.16-.7-4.18-1.53-.37-5.03l.33,2.62,1.99-.4c.5,1.6,2.17,3.62,3.45,4.76.46.42,1.71.28,2.12.81.33.43-.66,1.7-.09,2.65.88,1.45,4.14,1.06,2.34,4.89l.97.82,1.64-.46-.66,3.26c4.57.29,4.39,5.47,9.82,3.93-1.92-3.06.34-3.01.64-3.73.21-.51-.1-1.22.02-1.49-1.12.09-1.96.74-2.95,1.14l-3.58-2.46,1.3-2.28c-2.66-.87-1.18-3.07.99-2.89,1.58.13,2.63,2.68,4.57-.04,2.41,2.3.54,4.39-.33,6.53ZM372.52,280.35c-.68-.94-1.08-2.52-1.64-3.61l-4.07.72c-2.84.91,1.14,6.61,2.51,7.75.61.52,1.91.47,2.14.77.39.49-.09,1.81.77,2.82.57.66,5.85,2.83,6.9,2.85,2.25.05,2.71-3.1,5.54-2.54.79-2.42-1.75-2.31-1.96-2.62-.45-.66,1.23-1.8,1.03-2.63-.88-3.74-6.01-3.15-8.88-4.54.68,2.68,3.33,2.17,3.92,4.56-2.64.44-4.86-1.56-6.28-3.52ZM454.65,278l-2.33.65c1.07,3.04-1.4,2.94-1.61,3.73-.37,1.41.27,3.83.02,5.43h1.96c-.02-1.34-.09-2.69.28-4s1.66-1.16,1.7-1.66c.1-1.09-.92-2.66-.02-4.14ZM445.49,287.8c-.36-.35-1.4-.48-1.14.83.44,2.24,1.05,4.78-2.13,4.41,1.98,2.67-2.41,5.81-2.01,8.12l1.36.7-1.3,2.29c4.85-.76,4.13-6.68,4.72-10.63.19-1.25,2.19-4.08.49-5.71ZM448.11,303.49c.65-5.48,4.2-10.06,1.96-15.69-.92-.16-.96,1.16-1.12,1.81-.77,3.13-.67,5.44-.99,8.16-.22,1.85-2.37,4.66.15,5.72ZM388.64,315.34l3.6-.71-.37-4.59c-1.63,1.26-2.71,4.01-5.22,2.6-.05,2.43-1.83,4.87,1.96,4.59l.04-1.89ZM340.21,317.87c2.48,1.38,3.11-.17,4.95-.61,1.43-.35,4,.74,4.21-1.66-4.6-3.51-7.8-4.59-9.15,2.27ZM382.72,315.27c-1.42-1.4-4.66,4.34-6.21,4.57l-.65-1.95-3.28,4.57-1.3-1.3c-.88.78-5.22,5.56-4.25,6.53,1,0,2.09-.18,3.01-.55,1.25-.51,10.73-7.94,11.73-9.2.5-.62,1.51-2.1.94-2.67ZM616.82,437.55c.34-2.47,1.04-5.01.69-7.55-.2-1.43-1.22-2.3-1.27-3.2-.07-1.28,1.1-3.32.58-4.94-.16-.21-.81.38-.98.65-1.62,2.43-2.25,15.54-4.37,16.88-3.03.37-10.26,1.67-11.8,4.23-1.96,3.25-1.37,8.25.16,11.6,3.73-1.1,3.85-5.32,4.65-8.42l2.11-.08.76,1.31h1.29c.86-1.79,1.47-2.29,3.6-1.98.16.16-.1,4.62,1.63,3.93-.08-3.25,3.42-1.41,5.23-3.28,2.73-2.83-1.09-5.66-.27-8.78l-2-.37Z" fill="#ffffff"/>
    <path class="st2" d="M320.03,91.54c.24.24,1.7.02,2.49.43,1.47.76,4.88,7.54,5.6,9.46.62,1.66,2.06,9.95,2.4,10.36.26.33,1.97-.02,2.82,1.43,1.49,2.53,2.82,10.57,4.2,12.59.92,1.34,2.85,3.88,3.98,5.39,1.44,1.92,7.02,7.01,7.85,8.63.58,1.14.39,2.57.83,3.29.58.92,6.84,3.66,8.28,4.5.7.41,1.39,1.91,3.09,2.75,2.22,1.09,4.99,1.09,6.76,3.07l-7.89-2.57c-2.91-2.56-8.68-4.33-11.11-7.2-1.32-1.56-1.07-2.87-1.9-3.99-6.56-8.93-10.85-10.96-15.4-22.54-1.47-3.75-3.97-6.72-5.18-9.77-.48-1.2.69-3.46-2.32-4.94,3.96-.29.72-2.68-.13-4.45-2.87-5.95-2.72-3.2-5.42-6.35-.8-.93-.96-2.59-1.95-3.94-1.66-2.25-5.54-4.06-7.32-6.08-1.38-1.56-2.46-4.91-3.52-5.97-1.8-1.79-5.1-3.75-7.51-6.23-3.93-4.04-6.41-9.26-9.46-12.77-6.41-7.36-20.05-12.48-27.17-21.87-1.58-2.08-3.68-8.27-5.16-9.22-2.57-1.67-5.13-.42-6.69,1.91-1.26,1.89-4.05,10.14-4.52,12.48-.7,3.53.56,7.25-2.24,10.19-3.89,4.09-5.6-.21-8.49-.75-1.57-.29-2.67.52-4.11.3-5.22-.81-8.44-12.59-17.36-13.5-1.81-.18-3.41.85-5.33-.12-1.01,3.17-2.78,5.17-2.6,8.72.19,3.73,4.07,21.9,5.49,25.31.67,1.61,1.97,1.54,2.23,2.35.09.27.12,5.28.06,5.71-.41,2.69-3.6,5.02-4.27,8.21-1.18,5.59-.66,10.14-2.89,16.07-4.36,11.61-9.51,11.36-18.28,17.69-3.6,2.6-6.8,5.92-10.18,8.79-.74.63-1.07,1.58-2.29,1.3,1.63-2.64,4.26-4.25,6.54-6.21.62-.53,2.52-2.13,3.28-2.73,8.86-7,13.05-5.95,19.62-18.18,3.62-6.74,1.97-11.7,3.39-18.19.42-1.9,2.95-3.78,3.1-6.06.4-6-1.69-8.64-2.94-14-1.37-5.88-2.69-11.99-3.65-17.96-.13-.81-.87-1.5-.92-2.02-.18-1.79,2.86-9.53,4.67-9.95,4.77-.04,9.11.82,13,3.75,2.76,2.08,6.79,10,9.71,9.67,2.67-.3,2.4-1.6,6.29.52.91.5,0,2.11,2.81,1.44,4.98-1.17,3.25-8.21,3.89-11.79.58-3.29,4.96-13.53,8.34-14.6,7.11-2.26,7.47,6.5,10.81,10.84,6.91,8.99,19.35,13.58,26.11,20.98,3.11,3.4,5.64,8.97,9.53,12.71,1.86,1.79,6.56,4.51,8.23,6.16,1.24,1.23,2.07,4.58,3.88,6.59,1.98,2.2,6.83,5.07,8.23,7.47.61,1.04.53,2.73.69,2.89Z" fill="#ffffff"/>
    <path class="st2" d="M257.28,51.01l1.85.08c-1.12,2.57-.14,4.54,1.64,6.53l.32-3.26c1.63-.46,1.48,1.4,2.13,1.78.69.41,1.73-.01,2.76.83,3.65,2.99,2.86,7.11,4.16,10.87.66,1.92,4.19,4.14,3.38,7.44l1.95-1.96c-.67,2.01,1.42,9.42-.09,10.37l-3.17.1,1.29,2.29c-.03,1.8-7.23.38-8.49-.32-.9.88,4.56,5.48,5.57,5.88l-.67,1.31c-4.3.25-3.41-6.2-7.5-3.92l-.04-3.24c-5.25.35-3.49-3.14-4.19-4.6-.48-1.01-2.85-1.7-3.66-2.92-1.43-2.17-.27-5.61-4.55-4.94.37-2.92.47-2.8,2.62-3.6-2.12-4.8-3.45-9.06-3.95-14.35-.71-7.59.39-11.13,1.84-17.83.36-1.66-.47-4.09,1.44-4.75,1.49,3.23,2.33,6.7,3.24,10.17.28,1.08-.2,2.53.16,3.76.33,1.11,2.39,2.17,1.95,4.3Z" fill="#ffffff"/>
    <path class="st2" d="M224.47,94.24l-1.31,1.31c5.6.4,13.8,2.31,15.04,8.5-4.71,1.3-13.18,5.81-17.63,2.92-3.54-2.31-1.97-6.19,1.27-7.5-2.74-2.04-.07-9.39,2.62-5.23Z" fill="#ffffff"/>
    <path class="st2" d="M214.78,51.67c.21.22,1.29-.11,1.67.21.41.35,3.96,7.2,4.1,8.09.31,2.09-1.12,8.87-3.56,9.19-3.21.43-5.35-2.14-4.94-5.29.62-4.78.33-8.4-.83-13.59-.22-1-1.39-2.36-1.76-3.46,4.65-4.11,4.84,4.33,5.32,4.84Z" fill="#ffffff"/>
    <path class="st2" d="M257.41,235.24c.58.41,2.41,2.01,3.03,1.55l.65-1.95v4.57s1.32-3.92,1.32-3.92c3.62,1.87-.65,5.28-.66,5.62,0,.26.66,4.84.74,5.1.37,1.16,2.38.65,1.86,2.02l-2.37,2.26c-.67.12-4.27-3.33-4.51-3.87-.37-.81,2.05-3.3.71-5.28-.9-1.33-2.78.68-3.63-.96l1.97-4.88c-.55-.47-3.57,2.65-3.92.31-.18-1.19,2.07-2.32,2.98-2.29,1.35.05,1.28,1.34,1.83,1.73Z" fill="#ffffff"/>
    <path class="st2" d="M301.7,210.61c.36.41,2.52-.78,1.9,1.34l-1.98.34c-.15,1.35,1.6,3-.32,4.24l-.66-1.97c-.73.61-3.33.06-3.47.17-.31.22-.27,1.29-1.16,1.67-.77.33-3.08-.6-3.8-.4-1.19.34-.45,2.42-2.34,1.85l.67-3.91,3.25.65v-1.97s1.96.66,1.96.66l.63-2.97c2.24.59,3.48-1.32,5.26-2.27l.07,2.59Z" fill="#ffffff"/>
    <path class="st2" d="M282.67,89.01l-2.29-3.26-1.3,2.61c-2.7-3.04-1.04-7.22,1.3-9.8,1.26,3.41,3.32,6.8,2.28,10.46Z" fill="#ffffff"/>
    <path class="st2" d="M249.98,219.15l1.3.65-2.29,3.26c-.8-1.56.61-3.07-1.63-3.59,4.16-1.91,3.09-6.45,6.21-8.82l.92,6.09-4.52,2.4Z" fill="#ffffff"/>
    <path class="st2" d="M498.52,274.65l-.02-7.41,3.23-9.51c1.54,3.92-1.2,7.1-1.35,10.78-.1,2.5,2.33,8.06-1.86,6.15Z" fill="#ffffff"/>
    <path class="st2" d="M641.67,391.13l-.65,3.92,1.9-.61,1.36,4.53h-4.12c-1.97-1.77-2.98-3.6-2.31-6.45l3.82-1.39Z" fill="#ffffff"/>
    <path class="st2" d="M616.81,349.28l3.92,3.64-1.66,3.59c-5.05.38-6.79-5.46-2.26-7.23Z" fill="#ffffff"/>
    <path class="st2" d="M643.26,462.03c1.36-1.76,4.42-4.17,6.24-1.93-1.33,4.04-3.35,6.96-7.83,4.57-.11-.75,1.09-1.99,1.59-2.64Z" fill="#ffffff"/>
    <path class="st2" d="M326.48,296.96l-1.97,4.57-1.95-1.96c.23,2.32-.66,4.21-3.27,3.92.9-3.05-.51-5.1,2.61-7.53l.33-.3c1.41,1.78,2.08,2.18,4.25,1.3Z" fill="#ffffff"/>
    <path class="st2" d="M603.75,338.81l-5.87-.68.7-3.18c2.08-.96,3.12,1.42,4.28,1.71.84.21,2.85-1.03,3.44,1.3s-4.34,5.39-2.55.86Z" fill="#ffffff"/>
    <path class="st2" d="M524.63,313.3c.86-3.08,2.7-6-1.92-6.59l-.04-1.91c1.65,1.41,4.16-5.06,4.26.02.06,3.07,1.62,8.06-2.3,8.48Z" fill="#ffffff"/>
    <path class="st2" d="M245.4,206.72c-1.65,2.51-2.57,6.04-5.88,6.53-.6-1.82,4.92-7.43,5.88-6.53Z" fill="#ffffff"/>
    <path class="st2" d="M252.59,226.99c-.5,1.71.8,3.99.52,5.4-.09.46-1.2,2.79-2.14,2.44-2.14-.8.43-3.14.63-4.47s-1.43-3.87.99-3.37Z" fill="#ffffff"/>
    <path class="st2" d="M315.36,443.44c.01,2.53.52,5.35-1.63,7.18-1.89.08-.48-7.09,1.63-7.18Z" fill="#ffffff"/>
    <path class="st2" d="M493.88,269.5c.38,2.39.61,3.86.03,6.25-.27,1.11.63,1.91-1.33,1.59l-.55-6.8,1.85-1.04Z" fill="#ffffff"/>
  </g>
  <g>
    <path class="st2" d="M154.53,320.74c-.8.94-.11,5.75.44,6.86.18.37.54.38.66.58.86,1.45,1.71,2.9,2.63,4.32.47-.11,2.48.19,2.58.11s.15-.65.45-.87c.9-.67.58.06,1.52-1.15.81-1.03,4.7-1.22,5.95-2.17.46-1.05.89-3.4,1.6-4.23.44-.52,1.21-.55,1.67-.87.35-.25.38-.77.8-1.02,1.43-.83,2.44.46,2.68-2.14l3.15-.64c-1.1-1.98,3.45-1.79,3.75-2.09.36-.36.38-2.03,1.04-2.59.43-.37,1.31-.44,1.89-.73,1.1-.54.41-.42,1.84-.78,1.24-.32,1.39-1.4,2.24-2.13,1.28-1.09,5.79-3.47,6.28-4.52.15-.32-.18-.8.13-1,.53-.35,1.94-.24,2.36-.58s.07-1.57,1.47-2.03c.39-.13,2.67-.47,3.03-.44.54.04,2.55,1.16,3.34,1.28.72.11,1.84-.16,2.43-.04.72.14,1.86.94,2.72,1.07,1.75.25,3.01-.45,5.09.16,2.29.67,2.01,1.26,3.2,2.63,2.09,2.39,3.03,1,5.63,1.66.52.13.83.57,1.3.74,1.08.39,2.18.28,3.11,1.55.29.4.23.97.54,1.36.51.66,1.47.27,1.97.78.22.23,2.75,3.22,2.83,3.44.06.18-.27.67-.17,1.18.37,1.88,1.53,1.35,2.73,2.27.95.73,1.98,2.75,2.48,3.07.57.36,1.54-.23,2.4-.1.78.11,2.74,1.4,3.24,1.36.47-.04.88-.7,1.26-.77s.91.45,1.42.52c.78.11,1.47-.19,2.03-.14.67.06.91.84,1.1.94.31.18.86-.03,1.05.13.1.09-.05.56.23.85.29.3,1.86.68,1.85,1-1.03.54-.46,1.35-1.04,1.89h-1.75c-.28,1.56-1.86,1.27-1.57,3.05.04.25.71,1.67.85,1.77.1.07,1.62.08,2.33.6.64.46.56,1.25.88,1.45,1.29.86,5.54-.57,6.71,1.45-.65.74-1.7.33-2.64.56-1.78.44-3.44,1.52-5.01,2.28-.73.35-.54.99,0,1.4,1.3,1.01,5.84,1.32,4.23,3.05l.79.91-.52.9c.02,1.28,2.94,2.06,3.09,2.6.03.1,0,1.73-.06,1.85-.15.34-.77.65-1.03,1.03-1.04,1.52-2.09,3.12-3.67,4.23.61.81-.01,1.05,0,1.31.03.95,1.68,2.12,1.83,2.68.04.15.22,2.1.24,2.42.02.37-.37.61-.37.98.02,1.71,3.43,6.49,4.41,8.41,2.15,4.2,3.79,8.37,6.07,12.59,1.17,2.16.46,4.01.54,6.16s2.03,5.4,2.05,8.48c.05,7.95-7.95,10.1-8.11,17.28-.04,1.87,1.19,4.62,1.38,6.63.27,2.93-.37,4.06.28,7.31.86,4.29,1.03,8.35,2.29,12.58.26.89.2,4.41-.16,5.27-.3.71-1.03.77-1.24,1.17-.83,1.57-.8,3.72-2.49,5.31s-4.33.27-6.41.27c-1.24,0-2.96.61-4.09.56-.83-.03-1.47-.6-2.6-.55-1.19.06-2.47.94-3.83.03l-.11-1.18-2.5.27c-.25.04-.39-.14-.57-.25-2.44-1.4,1.4-4.14,2.8-5.1,4.15-2.85,4.67-1.39,4.94-7.33.07-1.41.07-1.78.26-3.22.55-4.31-3.7-8.69-6.1-11.64-.63-.77-.75-1.74-1.59-2.5-1.99-1.8-5.02-1.68-7.14-2.77-1.39-.71-2.31-1.48-4.08-2.34-1.37-.66-2.72-2.26-4.1-2.61-2.62-.67-4.54-.62-7.16-.75-.51-.02-1.1.23-1.47.19-.61-.08-2.03-1.25-3.2-1.34-.17-.01-2.04,0-2.13.05-.14.09-.21.81-.61.99-.24.11-.68-.17-.97-.08-.63.18-1.8.62-2.62.89-2.05.66-4.7,3.16-6.25,3.36-.45.06-.91-.46-1.43-.53-2.28-.26-5.09,4.51-8.28,3.06-1.05-.47-3.62-4.19-4.59-4.48-.84-.24-1.2.54-1.64.5-.38-.04-1.54-.99-2.08-.98s-2.06.91-2.78.55c-.8-.39-1.5-2.17-1.76-3.02-.75.68-1.37-.23-1.6-.23-.21,0-.44.53-.72.62-.55.18-2,.21-2.32.34-.77.3-1.83,1.41-2.86,1.54-.82.1-1.56-.66-2.2-.48-.08.02-1.45.76-1.51.82-.46.5-.65,1.61-1.45,2.06-1.13.65-1.51.68-2.81,1.57-.39.27-1.13.27-1.37.52-.12.12-1.61,2.83-1.66,2.99-.36,1.08.19,2.92,0,3.35-.08.19-2.3,2.86-2.63,3.22-1.7,1.86-3.76,3.2-5.69,4.51-1.16.78-2.12.81-2.46,2.46-.17.81.04,2.02-.3,2.96-.37,1.03-1.37,2.52-1.72,3.78-.3,1.04-.21,2.49-.83,3.59-.34.61-1.05.75-1.11.99-.21.88.25,3.28-.86,4.03-.35.24-1.14.14-1.67.37-.78.34-1.21.93-1.94,1.22l-.95-1.18c-1.94,1.01-3.1-.89-4.98-.77-.75.05-2,.95-3.13.8-.96-.13-.88-1.02-1.08-1.15-.17-.12-.67.24-.97.21-1.24-.14-2.42-.62-3.67-.39l-.54-1.46c-1.04-.66-2.58.95-3.55-.57-.22-.34-.01-2.92.18-3.35.72-1.62,4.1-3.34,5.93-2.97.72-1.73,1.69-3.24,2.01-5.13.15-.87,0-1.7.09-2.53.07-.61.59-1.02.56-1.73-.06-1.81-1.52-2.81-1.96-3.89-.88-2.2-.45-7.57-2.43-8.65-1.07-.59-3.3-.97-4.34-1.49s-2.27-2.51-3-2.83c-1.53-.68-4.15,1.3-2.84-1.97-.9.12-2.06-.33-2.77-.88-.92-.71-.89-1.49-1.45-2.05s-1.66-.68-2.36-1.43c-.64-.68-.8-1.8-1.43-2.36-.72-.63-1.61-.48-2.31-.9-.58-.35-.68-.98-1.07-1.26-.52-.38-2.08-.95-2.6-1.48-1.24-1.26-1.19-4.86-1.21-6.52-.55-.53-1.61.02-2.01-.17-.33-.16-.45-.79-.8-1.04-1.17-.86-3.8-1.46-4.38-2.54-.67-1.27.18-3.14-.15-4.81-.4-2.03-1.05-1.04-1.68-1.26-1.22-.42-.95-4.09-.86-5.24s.98-2.06.29-3.35l-2.43.83c-1.17-.21-.53-3.23-.58-4.24-.02-.43-.45-.72-.43-1.06.02-.39.56-.9.68-1.36.53-2.21.87-4.46.59-6.73-.16-1.3-1.18-.94-2.13-1.62-1.14-.83-.06-1.24-.14-1.94-.3-2.62-1.73-4.48-.74-7.58s.66-3.2.81-6.17c.03-.7.67-3.07.54-3.52-.08-.29-1.25-.48-1.1-1.14l1.73-1.48c-.64-1.28-3.32-.8-3.13-2.29s2.84-1.5,3.89-2.22c0-1.19-.34-2.27.39-3.38l3.05.19c.47-1.62,1.8-1.95,3.38-1.77-.08-.36-.5-.42-.46-.89s.89-4.37,1.05-4.79c.35-.94,1.5-1.98,2-3.25,1.55-4.01-1.16-5.32-3.17-8.14-.8-1.12-3.71-5.32-4.03-6.47-.19-.67.22-1.17.17-1.65-.06-.59-.97-1.41-.98-2.71,0-1.01.57-1.62.72-2.36.1-.51-.22-.97-.15-1.33.61-3.16,2.96-4.83,5.04-6.72.27-.25.25-.75.49-.97,3.25-3.16,6.72.88,9.93,1.93.88-.15,2.14-2.73,2.61-3.09,4.34-3.31,12.41-3.59,17.49-2.35,1.55.38,3.4,1.89,5.32,1.71,2.06-.19,5.23-4.54,7.04-4.63,1.16-.06,3.16,1.99,4.13,2.12,1.6.21,3.41-1.42,5.94-.65,3.43,1.05,3.13,2.41,3.15,5.59,0,2.11-.22,3.86.16,6.04.06.34.5,2.2.57,2.3.3.43,1.53.26,1.62,1.32.07.87-.83,1.2-.83,1.44,0,.17.5.47.51.88.01.38-.36.7-.41,1-.06.39.2.8,0,1.18-.27.51-1.52.78-1.58,1.66-.04.51.79.96,1.08,1.45.73,1.23.33,2.9.32,4.35,0,.48.3,1.1.24,1.41-.13.72-1.17.63-1.33.82ZM94.39,341.68h-4.23c-.29,0-1.9.7-1.89,1.02.65.17,1.84,1.13,2.24,1.25.51.16,2.63-.1,2.42.79-.13.55-2.24.84-2.63,1.75,1.72.69-.14,2.78-.16,4.21-.03,2.6-.59,4.25-.99,6.89-.18,1.16.2,2.44-.31,3.63.86.11.82-1.02,1.49-1.57,1.3-1.06,2.55-.69,4.05-.47l-1.17.59.29.56c-1.41-.01-.88.81-1.15,1.02s-1.89.86-2.01,1.07c-.08.14.29,2.46-.59,3.08.13,1.4,1.9.6,2,.67.16.11,1.01,3.16.57,3.61l.62.36c-.98,1.34-.09,2.65-.09,3.18,0,.18-1.68,2.18-1.84,3.03-.08.44.44.98.47,1.63.03.69-.76,3.14-.6,3.35,1.09-.37,2.5-1.92,3.33-.57s0,2.41-.1,3.66c-.12,1.5.02,3.01-.32,4.49,3.84-.46,1.95,5.02,2.9,6.51.78.72,2.08.74,2.92,1.24.74.44,1.13,1.52,1.48,1.73.58.34,1.74-.03,2.34.58.92.93-.64,5.04,2.94,7.27.38.24,1,.27,1.24.44.35.26.17,1.01.78,1.33.64.35,1.73.1,2.49.72.6.49,1.02,1.95,1.73,2.65s1.96,1.02,2.5,1.87c.3.47.23,1.21.57,1.47,1.3,1,4.35,0,2.92,3.06,1.97-.42,2.8-.64,4.34.76.48.43.92,1.46,1.5,1.71s1.21.07,1.75.29c.43.17,3.06,1.36,3.19,1.48,1.77,1.46,1.39,7.46,2.78,9.47-.09-1.38.61-2.71.73-3.93.28-2.95-.84-2.8,1.01-5.99.31-.54.82-1.39,1.32-1.74l-.87,2.91c.58.7,1.08-1.66,1.17-1.75,1.66.19,0,1.23-.01,1.32-.05.31.15,1.02.45,1.01.52-.02.1-1.46,1.02-1.16.71,2.55.26,5.54.6,8,.49,3.55,1.91,6.11,1.41,10.19-.29,2.37-2.4,7.46-5.51,6.3l.21-.52c-.96-.01.12-1.99.4-2.74.07-.2.44-.21.53-.46.43-1.2.67-2.99.29-4.21-.07-.21-.42-.2-.53-.45-.22-.51.16-1.55-.89-1.82-.37,3.12-1.16,6.22-3.11,8.7-1.55.04-3.16.28-4.37,1.32-1.76,1.51-.68,2.36-1.27,4.27,1.48.04,2.6-1.3,3.96,0l-.17.87.74-.26c.18.74,1.08.7,1.74.55.91-.19.43-.81,1.09-1.27,1.19-.83,5.9-.8,7.31-.48.24.05.21.52.57.68.44.19,1.27-.02,1.82.5l.29-.59.88,1.16.58-.88,1.01.87,1.03-1.45.73,1.16c.45-2.57-.71-4.56-.87-7l1.6,2.04c1-1.25,1.32-2.53.73-4.07l.87.58-.21-2.5.81-.57v-.56s-.88-.89-.88-.89c2.25-.17-.09-2.24,0-2.62l.88-1.02h-4.08l.87-.73c-.29-.62-1.62-.09-1.46-1.02-.82.16-.02,1.22-.74,1.44-1.42.44-2.31-1.73-1.58-2.9,1.1.39,1.52,1.23,2.91.87-.15-1.28-1.57-.35-1.2-2.02l-.8-.05v-1.11s.83-.03.83-.03l-.3-.58c.43-.3,2.83.56,3.21-.58-.75.03-3.8.08-3.81-1.02,0-1.17,1.77-.93,2.49-1.34.48-.28.16-1.48,1.32-1.43l-.03-.56c-1.95-.29,1.29-.9.61-1.48h-1.46c.43-1.06-1.14-2.07.87-2.04l.03.84h1.1c.34-.71.7-2.57-.14-2.85l-.98-.04v1.46s-6.09.25-6.09.25l-.61-1.28c.85-.25.74-.98,1.07-1.31,1.27-1.31,1.6-.4,2.53-.56.21-.04.17-.6.35-.61,1.25-.07,3.45,1.01,4.79.44.61-.26.9-1.22,1.27-1.5.53-.4,1.56-.53,2.11-1.24.5-.64.39-1.27.74-1.89,1.22-2.18,5.74-2.06,7.69-1.04l1.32-1.32-2.04-1.03.21-.59.67-.28-3.79-1.9,1.46-.15c-.18-1.53-2.11-.93-3.1-1.1-.92-.16-1.72-.69-2.59-.68-1.07.01-1.86.96-3.06.62-.1.78-.02.74.58,1.02-.35.11-1.17,1.19-1.25,1.23-.94.41-1.94-.27-2.13,1.27l-1.29-.02c.21-1.17-.39-1.79-.86-2.73.35-.75,1.18-.75,1.82-1.06.18-.09.17-.53.4-.58,1.26-.26,2.98.07,4-.03,1.72-.17,3.44-.57,5.13-.85.43-.41-.04-.53-.43-.58-1.19-.16-2.28.36-3.49.3-1.47-.08-2.55-.98-3.95-1.17l1.16-.29-.29-.87c2.36.48.17-.51,0-1.46l2.33.87c.61-1.52-.91-2-1.75-3.06,1.51-1.23,2.29,1.61,3.93.73l.16.88.62-.84c.74-.44,2.99,1.76,3.69,2.21.5.32,1.22.31,1.52.54.12.09.99,2.18,1.46,1.59-.63-.88.41-1.52.26-2.12-.23-.96-2.29-2.06-2.6-3.12.99-.2,1.32.81,2.04,1.16.44-1-.63-1.16-.61-1.59.07-1.55,1.71-1.81,1.19-4.04-.05-.23-.53-.08-.6-.62-.16-1.17.24-2.03.61-3.08.84-.26.5.7,1.16.87.17-1.5.13-3.5,1.75-3.94l-.84-.46-.04-1,.9-.3c-.34-1.61.28-2.98.48-4.44.08-.58-.1-1.17.05-1.97.36-1.83.9-1.47.9-3.49,0-1.61.03-2.7.59-4.23l.58.58c.69-1.09,1.95-2.9,2.01-4.21.08-1.94-1.04-1.37.38-3.77.51-.87,1.48-2.19,2.28-2.95.22-.21,1.61-1.35,1.75-1.42.69-.32,2.12.04,2.78-1.35l-.29,1.46c1.89-2.02,4.8-4.3,4.23-7.43-.17-.91-1.67-1.1-1.45-2.49,1.19-.07,2.72.88,3.08,2.02.18.58-.11,1.63.42,1.76.77-1.58-.1-2.67.3-4.08-2.16-.45-4.02-1.03-5.79-2.37-.67-1.17,2.85-2.09,3.68-2.22,1.66-.26,3.99-.06,5.32,1.09l-2.73.04-.47.4,4.21,1.91,1.21-2.33,2.44-.02-1.46.88c-.48,1.15,1.24,1.07,2.14.87.22-.05.15-.5.33-.52.76-.1,2.19.24,3.07-.05l-.29.87h1.75s-.29-.87-.29-.87c.79-.28.51.49.61.55.64.42.57-.63,1.15-.98.36-.21,2.45-.62,2.62-.45l.29,4.08.3-.87,1.42.02c.41,1.71,1.61,3.33,3.23,4.07.71-1.37-.37-1.48-.63-2.15-.32-.83-.41-2.18-.53-3.1l.58.58c-.06-1.48.92-2.79,1.39-4.01.11-.28-.22-.66.05-1.1.24-.4,1.96-2.09,2.37-2.59l2.03-2.21c-.05.78.13,1.65-.07,2.41-.16.62-1.03,1.15-1.09,1.83s.52,1.66.29,2.47l.91-2.87,1.71-.33-.29,1.46.87-.29c.13,3.04,1.14,5.62,4.04,6.75.27,1.98.17,2.74-1.27,4.04-.28-1.5-1.32,1.12-1.46,1.46-.39.98-1.56,2.94-1.6,3.12-.34,1.72-.19,4.3-.6,6.01-.06.25-.52.08-.6.62-.19,1.34.36,2.58.34,3.81-.02.99-.47,4.13-.64,5.22-.1.63-1,4.92-1.18,5.11-.09.1-.58-.05-.74.1-.41.35-2.12,3.22-2.72,3.57-.17.1-2.6,1.18-2.75,1.2-.51.05-1.25-.49-1.72-.39-.3.06-.5.52-.79.65-.36.17-.91.09-1.08.21-.22.16-.19.93-.45,1.31-.51.75-2.7,2.95-2.89,3.37-.1.21-.5,2.74-.5,2.99v4.52c.66-.04.42-1.07.73-1.17.91-.29-.12,1.5,1.02,1.17l.44-1.45.44,1.74c.83.3.4-.99,1.31-.58s.51,4.06,2.04,4.37l.44-1.75.87,1.17c.09-.67-.14-1.51,0-2.13.05-.22.52-.18.57-.4.14-.6-.34-1.87.3-2.13.06,1.08.01,2.88.31,3.87.07.24.48.19.55.43.25.82.1,1.95.75,2.7,1.02-.42-.53-3.28-.66-4-.16-.89-.04-1.81-.07-2.7,1.58,1.05,1.41,2.58,1.84,4.14.08.3.07.88.49.81l.3-2.33,1.16.73c1.04.45.24-1.92.26-2.35.02-.55.61-.39.63-.61.06-.51-.47-1.25-.3-1.86.63.05.45,1,.62,1.13.26.21,1.09-.13,1.38.08.14.1.13.67.32.92.28.37.98.47.89,1.37l.57-.19c-.18-.66.43-1.47,1.03-1.56.11-.02.09.43.37.56.51.24,1.51.51,2.1.61.26-.93-2.36-1.12-2.33-1.6.95-.15.64-1.24.96-1.54.07-.07,1.24-.6,1.37-1.15.15-.69-.25-1.69.27-2.3.12-.14,3.24-1.5,3.43-1.52.35-.04,1.64.6,2.26.52.28-.03.01-.92.76-.58l.29,1.75h-1.17c-.06,1.79-.02,3.68-1.16,5.1l2.93,2.32c-.57,1.44-1.27,2.22-2.93,1.92l.58,1.3c-.13.69-2.43-.51-2.26,1.42.13,1.54,2.11,3.49,3.44,4.12,1.57.74,1.12-.99,2.12-.96.91.03.66.72.88,1,.17.22.53.27.72.6.73,1.29,1.34,2.82.08,3.98-.43.4-1.25-.14-.9,1.16.06.24.61.3.82.68.49.88.15,1.95.8,3s2.17,1.65,3.34,1.76l-.58-2.33c1.31-.07,2.18,1.28,3.75,1.22l.06.78,1.13.06.04.81,2.6-.55-1.46-1.75h2.04s-.58-1.02-.58-1.02c.48-.66,1.3-.42,2.04-.44l.03,1.43c2.5,1.08,2.69-1.45,4.64-1.43v-.87s-2.29-.05-2.29-.05c-.31-.93-1.67-3.14-2.46-3.65-1.22-.79-2.6-.02-2.54-2.28l2.38.76c.6.33,2.16,2.12,2.53.94.17-.55-.32-1.67.48-1.56.64.67,1.11,1.68,2.19,1.75l-.31-2.74c1.25-.42.15-.73.03-1.5-.1-.62.15-2.5-.05-2.72-.11-.12-.83-.05-1.15-.44-.36-.44-.19-1.17-.4-1.64-.27-.59-2.82-3.67-3.27-4.09-.34-.31-4.17-2.45-4.45-2.49-.43-.06-.69.55-1.18.45-.51-.67.27-1.06.3-1.59,0-.12-1.22-1.15-1.41-1.82-.37-1.25,0-1.64-.61-3.24-.94-2.42-1.24-3.68-2.93-5.46-.44-.47-1.15-.6-1.19-1.3-.75.27.31,3.04-1.02,2.34l-.49-4.62-2-.17-.57-2.51-1.45.29c0-2.31-1.69-3.92-2.26-6.05-.44-1.65-.59-3.88-.95-5.61,2.09.89,1.43-3.86,1.75-5.25l.58.58c-.06-.73.67-1.42.8-1.97.2-.87-.09-1.77.08-2.49.02-.1,1.07-.58.58-1.66,1.26-.13.99.95,1.74,1.46l.59-2.18-.44.08-.14-.52h1.75s0-1.46,0-1.46l.87.29c.07-1.96.55-.46.79-.3,2.28,1.53,3.31,1.17,5.27,1.95.34.14.32.66.54.69.5.07,1-.29,1.42-.26.92.05,1.95.86,3.05.54l-2.92-1.17.29-.57c-.49-.08-1.27-.1-1.66-.38-.6-.42-2.88-2.77-3.41-3.43-.74-.93-.76-2.74-2.8-2.61-.2-1.13.85-.15,1.46-.29l-.58-.58.58-.87c-.6-.06-1.15-.18-1.2-.84l-.79.23c-1.46-1.33-2.92-2.4-3.85-4.48s-.32-3.34-.28-5.41c2.89-.59,5.51,1.12,8.42,1.21l.33,1.71c.81.16.56-.3.59-.88,1.53.16,2.43.99,2.33,2.63l.87-.29v1.75s.58-3.2.58-3.2l.15,1.16.71-.28c1.51,2.39,3.07,4.36,3.53,7.29l.57-.29v1.75s.64-2.3.64-2.3l.82-.04c.13-.73-.48-1.25-.57-1.91-.12-.88.17-2.14-.01-2.86-.07-.26-.59-.12-.59-.34,0-.97,2.05-1.24,2.74-.99.51.19.36.83.57,1.03.57.57,2.05,1.76,2.82,1.56l-2.04.73,1.75.87-.87.43,1.08.22c1.66-.71,3.32-1.41,4.96-2.17.91-.42,2.48-1.59,3.74-1.82.27-.05,3.79.19,2.75-.6-2.96.04-5.88-.46-8.75.29-.15-.44,1.28-1.09.87-1.45-.38-.34-1.33,1.26-2.04.87l.29-.87-1.17-.15.58-1.01-1.16-.3c-.04-.48.61-.31.87-.73.42-.67-.85-.1-.86-.58.49-.63.13-2.26.62-2.72.05-.04.5.25.85-.19.25-.32-.25-.88.56-.75,0-.37-1.51-.77-.43-1.16.61-.22.27.8.86.57l1.91-1.45-2-.63.25-.53c-1.18,0-2.01.12-2.21-1.19-1.79-.5-3.04,1.17-4.21.71-.31-.12-.5-.71-.97-.65-.34.05-.95.82-1.38.98-.34.12-.66-.08-.95-.02s-.52.39-.88.4c-1.14.04-.6-1.37-1.36-1.68l-.15,1.46-.57-2.34h-1.32c-.02-1.72.79-2.24-1.02-3.19l-1.02.88c-.11-1.07-1.11-1.54-1.01-2.95l-.74.03c.18-.89.8-1.04.29-2.04l-1.74.58c.39-1.6-.63-3.62-2.19-2.34l-.44-1.74c-.32-.25-.31,1.19-.73.29-.2-.44-.21-1.44-.5-1.69-.74-.62-2.32.45-2.7-1.52l-.73.87c-.78.29-.45-.52-.77-.6-.44-.1-1.66.32-2,.2-.49-.18-.68-1.41-2.18-.89l-.87-2.21-.72.58c-1.02-1.17-1.26-2.45-3.19-2.33-.17.01-.12.5-.37.57-1.95.56-2.66-.31-4.32-1.15-.34-.09.19,1.13-.58.87-.41-.14-1.42-1.01-2.19-1.31-1.43-.54-2.7-.23-3.58-.49-.53-.16-.97-1.2-1.96-.82l.58,1.16c-.92-.49-1.81-1.06-2.91-.87l.58,1.16-3.21.59.58,1.16c-.79-.16-.92.2-1.17.87.7-.32.97.6,1.04.6.4,0,.78-.47,1.18-.52,1.15-.14,1.69.45,2.21.72.18.09,1.66-.69.82.22-1.17.48-3.27.8-4.53.76-.62-.02-.26-.71-.81-.59-.34.08-5.11,2.37-5.54,2.64-1.06.68-2.88,2.83-3.99,3.32-.64.28-1.35-.4-2.12.11-.86.57-.12,1.88-.22,2.02-.07.1-.53.13-.71.32-.23.25-.41.78-.48.83-.37.21-1.03-.04-1.5.06-.09.02-.54,1.01-1.63.61l-.34,1.42c-.49-.38-2.83.3-3.05.59l.73,1.02-.58.15.58.29c-.15,1.74-2.25.39-3.29.58-.17.03-1.83,2.1-2.83,1.76l1.31.28.15.58c-2.37.41-1.33,2.48-2.92,3.64-1.33.97-3.05,1.18-4.65,1.03l.58.87c-2.25,0-4.19,2.6-6.26,2.63-2.52.03-1.74-1.03-2.66-2.6-.35-.6-2.54-3.78-2.91-4.09-.26-.22-4.34-2.25-4.5-2.06-.39,1.44.69,2.66.86,3.66.56,3.36.49,5.28-1.04,8.28-.11.22-.55.21-.75.72-.75,1.86.18,5.14-2.21,6.73,2.72,3.56-.99.65-2.13,1.45-.25.18-.29,1.32-1.15,1.47-.08.15,1.38.45.59.88-.73.39-2.08.81-2.89,1.19-.93.43-1.39,1.39-2.93,1.02l-.02.85c-.94-.11-1.2-1.2-2.33-.87v1.16c.21.22,1.78-.5,1.46.58-1.9-.28-2.86.23-4.37,1.17l1.17.58-.04.98c-.31.96-2.13-.11-2.88.18l.59-.43c-.78-.22-.64-.55-.59-1.31-.74.51-2.17.08-2.31-.77-.02-.11.99-1.81,1.14-2.01,1.51-1.99,2.69-3.41,3.66-5.96.32-.83-.08-2.19,1.01-2.63v.88s.88-.15.88-.15l-.29-1.16-.58.14c-.1-1.07.45-1.84.17-2.94-.15-.57-1.15-.83-1.32-1.89-.14-.87.06-1.87-.02-2.75l-.29,1.75c-.37.49-.53-.03-.58-.43-.11-.88,0-1.86-.3-2.77l-2.62,1.75c-.17-2.37.33-5.49.01-7.74-.1-.68-.52-1.04-.61-1.72-.44-3.24,1.82-3.97,3-6.51,1.27-.71,2.51-1.14,3.71-1.68,1.46-.65,1.97-2.64,2.55-3.86.62-1.31,2.42-4.38,2.81-5.66s.25-2.64.71-3.95c1.4-3.95,3.5-4.59,6.57-6.55,1.75-1.11,3.28-2.38,5.15-3.3-.87-.9-2.72-1.62-3.94-1.61-1.4.02-2.85,1.09-4.58.82-2.28-.37-2.63-3.18-5.45-.94-1.47,1.17-1.72,1.63-3.6,2.74-.33.2-.25.78-.94.9-1.2.21-5.22-1.57-6.79-1.97-5.28-1.34-12.09-1.13-16.36,2.71-.71.64-1.69,2.58-2.57,2.69-1.63.21-4.24-2.19-5.91-2.57l2,1.79-.25,1.7.87.29c-.65-.02-1.31.04-1.94.25-.4.13-.41.53-.54.56-1.73.42-4.15.34-5.98.95.2-1.19.59-2.28,1.75-2.77.3-.85-1.26-.54-1.72-.27-.81.48-1.91,2.34-2.33,3.22s-1.36,4.26-1.47,5.25c-.39,3.49,2.15,7.26,4.01,9.92,2.01,2.89,5.01,5.43,3.86,9.3-.41,1.39-1.66,2.74-2.05,3.79-.36.98-.24,2.06-.42,3.08-.09.48-.65,1.09-.65,1.29,0,.24.62.62.48,1.16-.16.62-2.47.56-2.63.74-.2.23.99,1.06-.64,1.56-1.14.35-1.99-.24-3.15-.1-.16.16.19,2.62.43,2.92.42.53,1.65-.01,1.9.87ZM153.88,307.56h-2.92c.51.65.23,2.09,1.16,2.04l-.58.87c.96.06,2.12.77,2.92-.14l-.58-.29.87-1.17c-1.3-.45-.79-1.26-.87-1.31ZM153.59,314.56c-.23-2.23-3.25-.29-2.19.26l2.19-.26ZM135.52,340.22c.5-.11.59-.58.6-1.02.06-1.41-.64-4.25-1.06-5.68l-1.88-4.68c-.07.5.05.98.13,1.47.3,1.76,1.43,4.14,1.62,5.7.09.74-.29,1.32-.23,1.96.06.74,1.33.92.82,2.24ZM253.33,348.97c.44-.24,3.3.18,4.08,0l-2.26-.8c-2.54-.26-5.06-.32-7.59-.29-.44,0-.62-.13-.94.37-.14.49,1.2,2.03,1.6,2.48.37.42,1.22.85,1.26.92.06.09-.23,1.21.34,2.15.11.18,2.83,2.9,3.05,3.07.42.31,1.23.42,1.76.57l-.44-1.02c.84-1.06,2.2-1.22,2.92-2.19l-1.75.29c.23-.49.9-.98,1.46-.87-.58-1.45-1.65.98-2.21-.58-1.29.62-2.23-.88-3.58-.91l-.02-1.11c1.65-.45,3-.2,4.65-.02-1.04-1.03-3.5-.55-4.96-.87l2.27-.48c.46-.2.32-.66.35-.68ZM267.86,387.7c.55-.94-1.89-4.83-2.34-5.87-1.64-3.74-3.5-9.34-5.83-12.54-.42-.59-3.17-3.54-2.87-1.36-.07.08-1.25-1.36-1.47.15-.14.93.49,1.2.74,1.86.08.22-.16.57-.12.72.06.23.56.18.58.35.08.53-.56,1.03-.63,1.72-.2,1.99.54,3.04,1.19,4.67.25.63.51,2.2.72,2.49.34.46,1.26-.07,1.02.86l-2.91-.58c.45,1.5,1.64,3.11.72,4.67l-1.44-.59-.44.73c1.19,1.93,4,2.15,5.53,3.22.52.36.85,1.19.94,1.24.78.45,3.94-.36,3.8,2.33,1.07,0,1.91,1.38,2.7,1.53,1.07.2.05-1.36-.03-1.67-.06-.23.14-.57.09-.77-.2-.81-1.74-.94-.73-2.62.24-.4.73-.45.78-.54ZM258.81,388.7c-.13-.15-.87-.2-1.23-.39-.75-.41-2.77-1.72-3.37-1.89-1.78-.51-.3,1.36.42,1.92,1.3,1.02,1.98.69,2.99,1.07.38.15,1.37,1.78,2.4.53.17-.85-.87-.2-1.14-.47-.1-.1.06-.6-.08-.76ZM166.14,391.84l.29-2.91c-2.11.7-.82,2.09-.86,3.33,0,.18-.76.14-.62.59.64,1.67.99,2.98.05,4.65l1.15.76c0-1.08.71-2.06.85-3.09.06-.44.29-3.55.25-3.73-.06-.27-.51-.69-.8-.76l-.29,1.16ZM169.58,389.56l-1.69-.64c-.68,1.4-.02,2.61,0,3.92.1,3.94-.99,8.73,1.73,11.82-.47-1.34.51-2.09.74-2.91.67-2.44,1.09-4.93,1.31-7.44-.28-.44-.79.89-.8.95-.05.3.07,3.65-.66,2.69-.11-1.75.15-3.66,0-5.39-.04-.39-.53-2.9-.63-3.01ZM195.85,391.82l.03-1.44c-.79.6-.34,1.16-1.57.63-1.55,1.36-.17,3.65-.76,5.49,1.01.2.56-1.8.88-2.33.98.19.41,2.17.58,2.33h.87c-.62-1.83.58-3.01-.88-4.52l.85-.17ZM221.25,392.13c-.02-.59-1.86-1.34-2.04-1.16l-.59,1.75c.78.28.46-.52.77-.59.55-.12,1.27.08,1.85,0ZM258.2,391.93c-.31-.14-1.34-.33-1.08.34s3,3.1.87,2.78c.56,1.44,2.18-.22,3.02.02.47.14,1.91,3.07,3.11,1.57l-1.14-.17-.32-2.3c-.62.02-1.13.05-1.74-.16-.73-.25-2.02-1.76-2.72-2.08ZM175.17,399.13c-.38-1.95,1.71-3.96-.29-5.54-.36,1.71-1.14,3.42-.83,5.2l1.12.34ZM219.09,394.3c-.32-.16-.96-.57-1.21-.14l-.14,2.35,1.41-.05.64-1.54c-.26-.1-.6-.56-.71-.62ZM250.41,403.5l-.29-2.33c.43,1.99-.84,2.91-1.47,4.66l-1.16-.58c-.45.86-.13,1.92-.3,2.71-.04.19-.45.18-.54.44-.27.74-.39,1.58-.91,2.25l.58.14-.58,1.16,1.45-.29-.87,1.16c.65-.09.8.07,1.05.6l2.12-.64c-.05-1.32,1.07-1.84,1.49-3.05.45-1.29.37-3.63.89-5.08.84.26-.4,2.34.87,2.04.48-2.27-1.77-3.18-1.17-5.54l-.29.88-.58-.3-.29,1.75ZM217.16,410.5l-1.03.28-.14,2.05h1.16s0-2.33,0-2.33ZM160,417.23c-.8,0-4.42-1.84-4.65-.74s3.25,1.34,4.07,1.76c.67.34,2.05,1.68,2.78,2.17.7-1.59-1.47-1.9-2.43-2.67l.23-.52ZM159.92,424.01c.26.2.4.87.82,1.07,2.05-1.52-1.65-1.6-1.94-3.16l-1.12.25c-.55.54,1.99,1.65,2.24,1.84ZM161.17,428.28c-.29-2.6-1.41-1.7-2.99-2.1-.92-.24-2.3-1.97-3.71-1.68l2.92,2.19-.78.74-2.72-.3,1.19.72c-.12,1.13,3.04,2.37,3.84,2.15.89-.24,1.03-1.96,2.25-1.71ZM256.56,444.01c-.06-1.14.08-2.25-.27-3.38-.23-.74-.76-1.1-.87-1.46-.23-.79.33-2.02-.64-2.42.3,2.87,1.51,9.19-.77,11.33-1.21,1.14-6.18,3.35-6.73,4.21-.18.28-.49,2.42-.37,2.54,1.41.47,1.33-1.99,1.8-2.28.36-.21,2.55-.48,3.16-.79.4-.21,1.19-1.66,2.31-1.64l-.27-1.13,2.61-.6.02-2.9h1.75c-.22-.84.84-2.95-.58-2.92.05,1.04.14,2.09-1.14,1.43ZM249.65,448.53c.29-.22.74-.24,1.07-.53.98-.88,1.56-2.21.72-3.37-1.14,3.32-4.33,3.99-6.71,5.83-.44.34-2.68,2.44-2.19,2.91,2.14.49,1.99-1.47,3.05-2.34.89-.74,2.75-1.49,4.06-2.5Z" fill="#ffffff"/>
    <path class="st2" d="M129.1,384.84v1.46s1.17,0,1.17,0v2.04s.72-.58.72-.58l1.32,1.02c.15.68-.46.39-.87.44-.12.11,1.08,2.65-.58,2.63,1.48,1.58-.15,1.67-.2,2.5s.71,1.96.68,2.3c-.03.28-.57.53-.44,1.1.08.36.64.74.78,1.3.25,1.04.23,2.37-1.1,2.13l-.09-.77-1.36-1.56.58,7,1.41.05c.01,1.26,1.1,2.07,1.64,3.17.31.64-.13,1.29.73,1.65-.22,1.38,2.05,5.36-.13,5.63-.87.11-.19-.86-.48-1.15-.09-.09-.58.05-.76-.08-.25-.18-.18-.77-.44-1.04-.29-.3-1.25-.33-1.54-.94-.36-.76.2-1.74-.58-2.33l-1.17,1.45c-.29-1.09-1.59-.42-2.48-.58.33-1.12-.43-1.07-.67-1.53-.28-.52-.37-1.14-.68-1.65-.64-1.06-3.04-2.85-4.21-3.67s-2.12-.1-1.45-2.19c-1.89.23-1.65-2.33-.78-3.14.65-.6.58-.57,1.2-1.26,1.16-1.28,2.48-1.24,1.63-3.19l.58.3.3-1.46.87.87.3-2.91c.88-.29.64,1.06.58,1.6-.12,1.1-.71,1.99-.87,3.06l.87-.58.29,1.16c.68-2.23,1.07-4.35.88-6.7l1.16,3.79c.08-.67-.13-1.49.01-2.13.11-.5,1.2-2.86,1.43-3.87.29-1.24-.22-2.95,1.76-3.34ZM128.16,393.35c-.05-.08-.88-.48-1.1-.64l-.29,3.79c.93.2.69-1.23.9-1.81.08-.22,1.03-.43.49-1.34Z" fill="#ffffff"/>
    <path class="st2" d="M126.76,332.35c-.47,3.23.56,8.24-3.2,9.62-.08-1.26.44-2.44.59-3.66.07-.56-.25-1.21-.21-1.46.06-.38.91-.45.98-.83.13-.66-.91-2.37-.78-2.5l2.01-.03.61-1.13Z" fill="#ffffff"/>
    <path class="st2" d="M135.8,383.67c-1.03,2.4,1.87,2.65,1.75,4.66-.26.3-1.83-1.21-2.3-1.31-.38-.08-.87.26-1.15.1-.07-.04-.87-1.26-.89-1.34-.45-1.6,1.35-2.16,2.58-2.12Z" fill="#ffffff"/>
    <path class="st2" d="M134.35,397.67c.89-.23.72.96.93,1.12.3.24,1.37-.34,1.7,1.37.11.72-1.13.67-1.6.72l-.15-.88-.59,1.02c.01.11.34.14.36.18.96,1.84-1.26-.22-2.12-.19l-.27-3.62c.7.25.47,2.17,1.31,2.33,1.2.24.24-1.81.43-2.04Z" fill="#ffffff"/>
    <path class="st2" d="M102.67,314.74c1.08,1.25,1.73,1.27,1.05,3.32-.49.45-1.35-1.67-1.62-2.03-.7-.94-1.69-1.04-1.59-2.93,1.13-.17,1.56.96,2.15,1.64Z" fill="#ffffff"/>
    <path class="st2" d="M140.47,377.84v2.33c-1.1.27-.09-1.48-1.31-1.45-.96.02.37,2.95-.58,2.9-.37-.02-1.02-1.46-.99-1.9.03-.56.95-1.67.85-2.47l2.04.58Z" fill="#ffffff"/>
    <path class="st2" d="M96.98,307.61l-.23,1.25,1.1.5.04,1.12c-1.48-.18-1.62-2.02-2.09-2.57-.06-.07-.66.28-.82-.21.85-.16.39-.92.29-1.6l1.03.29c0,.76-.19.99.67,1.21Z" fill="#ffffff"/>
    <path class="st2" d="M131.14,356.85c.09.7,0,.46-.4.61-.9.34-1.87.28-2.8.26.75-1.46,1.71-1.68,3.21-.87Z" fill="#ffffff"/>
    <path class="st2" d="M202.87,396.5l-1.11-2.54.38-1.24c1.09.97.67,2.5.73,3.78Z" fill="#ffffff"/>
    <path class="st2" d="M125.89,329.72l-2.62-3.2c1.39,0,2.72,1.9,2.62,3.2Z" fill="#ffffff"/>
    <path class="st2" d="M159.13,407.88c.35.89-1.72.66-2.2.6-.64-.09-.91-.22-1.29-.74.44-.67.56-.24,1.03-.16.82.13,1.6.45,2.47.31Z" fill="#ffffff"/>
    <g>
      <path class="st2" d="M130.09,314.09c-.88,1.47.68.96.17,1.63-.02.03-.48.08-.72.29-1.31,1.18-2.88,3.85-1.17,5.25,1.35-1.47.53-3.62,2.04-4.95l.72.87c.11-1.1.88-1.74.01-2.77l1.74-.88c.13-.76-1.3-.41-1.75-.43-.19.16-.98.87-1.05.98Z" fill="#ffffff"/>
      <path class="st2" d="M135.52,313.1l-.29-2.92.55.69.61.18c.35-.76,3.43-4.91,1.88-5.22-.25-.05-.75.29-1.14.26-1.08-.08-1.06-1.73-1.62-2.49l.59-.43v-.58c-1.35.14-.63-1.54-2.65-1.3l.03-.74-1.75.29.3.58-2.63.59.58,2.33c-.12.15-1.55-1.95-1.45.29l.58-.15-.3,1.02c-.81.14-.44-.15-.57-.44-.63-1.33-.15-3.85-1.97-4.18-1.52-.27-3.24,1.43-4.26,1.36-.47-.03-.89-.71-1.26-.77-.41-.07-.79.41-1.19.47-1.84.27-1.43-.56-2.31-1.06-.34-.19-3.63-1.16-4.03-1.16-1.26,0-1.96.79-2.95,1.38l-.81-.54c-2.71,1.13-1.93,4.84-1.03,7.04.08.19.42.24.53.46.18.35.48,1.66.66,1.76.36.21,1.13-.12,1.37.09.25.21.41,2.25,2.08,1.71l-.29-.87,2.62.58c-.57-2.28,1.27-.69,2.06.15.86.9,3.36,3.97,3.91,5.13.13.27-.09.71,0,.85h1.03c.09.56-.13,1.32,0,1.84.08.3.67.33.9.63.43.55.83,2.41,1.73.6-.3-2.88.67-5.8,0-8.6l.87.58-.58-4.66.58.58.03-2.88h1.09s.33,3.17.33,3.17l-1.16-.87c.33,1.62-.72,3.85,1.16,4.37l-.29-2.33.88,1.46.29-1.17h2.92s-.58.47-.58.47v2.45c.2.01.39,0,.58,0,.93-.8,1.62-1.45,2.92-1.17.4,1.23-.6,1.12-.82,1.65-.17.42-.02,1.08-.35,1.55,1.51.17,2.35.42,3.75-.33l-.25-2.29-.87.58ZM114.08,307.1c-.6.03-1.2-.07-1.78-.24-.48-.14-.95-.31-1.4-.52-.42-.2-.82-.46-1.13-.8-.57-.63-.83-1.65-.3-2.38.05-.07.15-.11.23-.06.07.04.12.16.06.23-.26.35-.29.79-.18,1.21.23.82.98,1.3,1.72,1.62.87.37,1.82.65,2.77.61.22-.01.22.33,0,.34ZM115.15,306.75c-.31-.6-.41-1.27-.5-1.93-.09-.62-.14-1.25-.16-1.87,0-.28.03-.59-.04-.86-.04-.15-.12-.25-.27-.29-.14-.04-.3-.03-.45-.04-1.13-.04-2.25.31-3.16.97-.04.03-.08-.04-.04-.07.52-.38,1.12-.65,1.74-.81.56-.14,1.14-.2,1.71-.15.22.02.43.06.52.28.1.24.06.53.07.78.02.7.07,1.4.17,2.1.09.64.19,1.29.49,1.87.02.05-.05.09-.07.04ZM134.14,308.37c-.76,0-1.64.68-2.12-.1l.56-1.47c1.42.46,2.34-.72,3.81-.41l-2.25,1.98Z" fill="#ffffff"/>
    </g>
  </g>
  <g class="st0">
    <g>
      <path class="st3" d="M19.8,398.22c.06-.95.13-1.91.19-2.87-.09.48-.22.95-.42,1.43-.14.62.06.96.22,1.44Z" fill="#ffffff"/>
      <path class="st3" d="M20.18,392.7c.01-.17.02-.35.04-.51-.02-.16-.04-.31-.06-.44,0,.32.02.64.03.95Z" fill="#ffffff"/>
      <path class="st3" d="M20.32,387.69c-.13.88-.16,1.73-.17,2.54.13-.71.2-1.55.17-2.54Z" fill="#ffffff"/>
      <path class="st3" d="M19.75,391.65c.17-.3.33-.44.4.08,0,0,0,.01,0,.02,0-.5,0-1,0-1.51-.1.53-.24,1.01-.39,1.42Z" fill="#ffffff"/>
      <path class="st3" d="M19.75,391.65c-.15.29-.3.75-.39.91.14-.26.27-.57.39-.91Z" fill="#ffffff"/>
      <path class="st3" d="M16.47,390.15c-.06-.52.88-.33.75-1.35-.06-2.38-.35-4.45-.13-6.67-.1-1.03,1.15-2.5,1.05-3.53,0-1.2-.14-3.35-.32-4.75-.14-1.4-.35-2.07-.59-.28-.5,5.39-.71,8.92-.88,13.76,0,3.95.33,7.75.47,11.77-.03,1.12-.1,2.17-.18,3.23.08-.69.17-1.38.26-2.1.11-.72.21-1.46.33-2.24.39-2.04-.78-4.59-.75-7.84Z" fill="#ffffff"/>
      <path class="st3" d="M19.23,419.42c-.12-.49-.36-1.49-.36-1.49.64-2.26.31-4.59-.02-6.94-.15.34-.3.69-.45,1.05.09,1.35.36,1.5.54.3-.52,2.74-.54,5.34-.38,7.99.26-.18.56-.16.67-.91Z" fill="#ffffff"/>
      <path class="st3" d="M18.67,421.88c-.04-.52-.08-1.04-.12-1.55-.03.01-.05.04-.08.06.06.52.12,1.04.18,1.55l.02-.06Z" fill="#ffffff"/>
      <path class="st3" d="M20.52,377.01c.09-.83.19-1.65.28-2.47.12-.82.24-1.62.36-2.43.25-1.61.49-3.19.73-4.76.5-3.14,1.17-6.18,1.75-9.19-.1-.5-.25-.87,0-1.47.27-.44.47-.89.64-1.34.21-.87.42-1.74.62-2.61.04-.31.08-.62.13-.94,0,0,0-.02,0-.03,0-.52-.17-.4-.38-.13-.17.32-.36.6-.54.84.12-.15.34-.58.54-.84.21-.39.4-.83.57-1.35.11-.81.28-1.65.55-2.5-.14.98-.34,1.8-.55,2.5-.07.52-.13,1.01-.19,1.51,0,.15,0,.29,0,.45.24-.99.48-1.99.72-2.98l.82-2.94c.09-.46.17-.9.24-1.26.24-1.46.47-2.92,1.15-3.69.09-.35.21-.7.32-1.04l-.14.18c.07-.15.14-.27.2-.37.46-1.46.93-2.93,1.4-4.41.1-1.01.16-2.07.33-3.1,0,0,.52-.57.78-.85-.1-.47-.07-1.09.07-1.78-.53.71-1.07,1.34-1.47,1.96-.79.85.27,2.51-.95,3.43,1.22-.92.16-2.58.95-3.43.41-.62.94-1.25,1.47-1.96.29-1.44,1.03-3.2,1.94-4.49-.19,1.93-1.05,3.31-1.94,4.49-.14.69-.17,1.31-.07,1.78-.26.28-.78.85-.78.85-.17,1.03-.23,2.09-.33,3.1.87-2.89,1.95-5.75,2.96-8.69,3.45-9.4,7.11-18.3,11.22-27.08,4.11-8.79,8.73-17.44,14.22-26.23,5.97-9.5,12.38-18.2,19.19-26.25,6.79-8.03,13.23-15.71,20.15-23,6.91-7.29,14.36-14.15,23.06-20.25,1.63-1.21,3.6-2.69,5.68-4.36,1.03-.84,2.11-1.72,3.2-2.61,1.1-.88,2.22-1.78,3.34-2.68,1.11-.91,2.22-1.82,3.3-2.7,1.1-.87,2.18-1.72,3.22-2.53,2.06-1.63,3.94-3.14,5.52-4.28,7.55-7.42.8-7.63.24-7.51-3.65.51-6.33,1.85-9.44,4.01-1.56,1.08-3.3,2.27-5.34,3.68-2.03,1.43-4.41,3-7.36,4.72,3.95-2.42,2.96-.95.03,1.64-1.45,1.31-3.4,2.9-5.49,4.39-2.08,1.52-4.26,3-6.28,4-1.49.7-2.94,1.56-4.37,2.56-1.44.99-2.88,2.09-4.31,3.27-1.43,1.18-2.8,2.51-4.2,3.86-1.38,1.37-2.8,2.75-4.14,4.26-5.48,5.88-10.62,12.51-15.97,18.19-1.33,1.43-2.58,3-3.89,4.64-.65.82-1.32,1.67-2.01,2.53-.67.88-1.36,1.78-2.06,2.71-7.79,9.26-14.24,19.05-20.04,29.36-5.8,10.32-10.95,21.14-16.05,32.79-2.63,6.21-3.88,12.08-5.28,17.57-.65,1.96-1.31,3.99-2.05,5.89-.71,1.91-1.45,3.72-1.89,5.34-.72,2.54-1.33,4.92-1.82,7.21-.44,2.3-.8,4.51-1.13,6.66.49-2.38.91-4.44,1.35-6.57.47-2.12,1.01-4.3,1.69-6.93.94-3.49.48,2.77.09,5.12-.04.52-.42,1.09-.81,1.67-.37.58-.73,1.16-.75,1.69-.54,2.16-.63,4.24-.94,6.61-.02,1.04-.92.71-.93,1.23-.48,3.23.18,5.92-.49,7.89-.44,1.51-.84,2.88-1.22,4.22-.21.85-.41,1.7-.54,2.61-.02.58-.06,1.17-.06,1.78.36-.42.74-.53,1.12-.62-.19.83-.57,1.99-.75,2.82.18-.84.56-1.99.75-2.82-.39.09-.76.2-1.12.62-.04,2.15-.12,4.46-.22,6.8-.1,2.33-.09,4.72-.17,7,.03-.02.06-.03.09-.05.23-2.65.55-5.23,1.58-7.87-.39,1.15-.63.97-.48-.39.21-.32.42-.64.63-.96-.04,1.19-.08,2.37-.24,3.53-.13,1.16-.36,2.28-.84,3.35,0,0,.1,1.03.14,1.54-.22.73-.51.66-.79.79-.04.52-.07,1.04-.11,1.57.6-1.05,1.62-4.43,1.62-4.43Z" fill="#ffffff"/>
      <path class="st3" d="M25.27,350.23c-.06.36-.12.8-.2,1.26.39-1.67.84-3.32,1.31-4.97-.66.77-.95,2.23-1.12,3.71Z" fill="#ffffff"/>
    </g>
  </g>
  <path class="st1" d="M168.51,162.21" fill="#ffffff"/>
  <path class="st1" d="M367.57,108.72" fill="#ffffff"/>
  <g class="st0">
    <g>
      <path class="st3" d="M416.62,113.06c1.97.24,3.96.42,5.92.78-.98-.22-1.95-.49-2.94-.75-1.28-.25-1.99-.11-2.98-.03Z" fill="#ffffff"/>
      <path class="st3" d="M428,114.74c.36.06.71.12,1.05.17.32.02.63.04.91.05-.65-.07-1.31-.15-1.95-.22Z" fill="#ffffff"/>
      <path class="st3" d="M438.32,116.1c-1.8-.38-3.55-.58-5.24-.79,1.47.31,3.2.54,5.24.79Z" fill="#ffffff"/>
      <path class="st3" d="M430.16,114.58c.61.24.9.43-.16.38-.01,0-.03,0-.04,0,1.03.11,2.05.23,3.12.35-1.1-.23-2.08-.47-2.91-.72Z" fill="#ffffff"/>
      <path class="st3" d="M430.16,114.58c-.59-.23-1.54-.51-1.86-.64.54.21,1.16.43,1.86.64Z" fill="#ffffff"/>
      <path class="st3" d="M433.3,111.63c1.07.06.66.96,2.76,1.07,2.46.19,4.71.54,6.93.82,2.22.3,4.4.62,6.66,1.07,1.05.1,2.33.57,3.61,1.04.64.24,1.28.47,1.89.66.61.2,1.18.38,1.7.45,4.83.9,17.39,2.64,10.16.93-2.72-.62-5.21-1.18-7.56-1.72-1.18-.26-2.32-.51-3.44-.76-1.12-.24-2.24-.4-3.34-.6-4.4-.77-8.66-1.52-13.59-2.39-4.05-.48-8.03-.84-12.02-1.26-1.99-.2-3.99-.41-6.01-.62-2.03-.13-4.07-.26-6.15-.39-2.32-.21-4.47-.52-6.64-.82,2.82.45,5.71.91,8.92,1.42,1.05.18,2.17.28,3.36.32,1.19.07,2.44.14,3.78.19,2.67.1,5.65.19,8.98.6Z" fill="#ffffff"/>
      <path class="st3" d="M372.73,109.58c1.04-.08,3.13-.26,3.13-.26,4.63.82,9.51.53,14.39.67-.7-.2-1.41-.41-2.14-.62-2.79-.13-3.12.12-.66.49-.71-.12-1.41-.24-2.1-.33-.7-.07-1.4-.13-2.09-.2-1.39-.12-2.76-.21-4.13-.28-2.74-.14-5.46-.2-8.22-.21.34.27.27.57,1.82.73Z" fill="#ffffff"/>
      <path class="st3" d="M367.69,108.86c1.08,0,2.17,0,3.23,0-.02-.03-.07-.06-.12-.09-1.09.02-2.17.05-3.23.07l.12.03Z" fill="#ffffff"/>
      <path class="st3" d="M460.12,119.77c3.37.82,6.69,1.62,9.97,2.42,3.27.83,6.45,1.85,9.61,2.75,1.58.47,3.15.93,4.72,1.39,1.56.47,3.13.89,4.65,1.45,3.06,1.06,6.09,2.11,9.1,3.15.99.14,1.71.15,2.92.68.88.48,1.81.88,2.71,1.3,1.73.69,3.46,1.38,5.17,2.06.61.21,1.23.42,1.86.64,0,0,.04.01.05.01,1.01.28.78.03.23-.34-.64-.36-1.21-.71-1.69-1.03.31.21,1.16.67,1.69,1.03.78.43,1.65.88,2.7,1.34,1.6.56,3.27,1.17,4.96,1.89-1.94-.63-3.58-1.27-4.96-1.89-1.02-.35-2-.68-2.97-1.02-.29-.08-.58-.16-.87-.25,1.97.79,3.94,1.58,5.9,2.36l2.94,1.18,2.89,1.31c.9.37,1.76.71,2.46,1,2.85,1.12,5.71,2.23,7.24,3.42.68.31,1.37.63,2.06.94-.12-.08-.24-.17-.36-.25.3.16.54.3.74.43,2.84,1.45,5.69,2.9,8.55,4.36,1.94.76,3.96,1.5,5.95,2.33,0,0,.29.23.63.54.35.31.76.67,1.04.91.87.21,2.04.67,3.36,1.3-1.38-1.09-2.61-2.13-3.81-3.01-1.69-1.44-4.76-1.3-6.62-3.25,1.87,1.95,4.93,1.8,6.62,3.25,1.2.89,2.43,1.93,3.81,3.01,2.74,1.31,6.1,3.36,8.63,5.29-3.64-1.54-6.33-3.47-8.63-5.29-1.32-.63-2.48-1.09-3.36-1.3-.27-.24-.69-.61-1.04-.91-.35-.31-.63-.54-.63-.54-1.99-.83-4.01-1.58-5.95-2.33,5.64,2.74,11.08,5.98,16.71,9.16,17.92,10.54,34.33,22.02,49.78,34.95,15.42,12.94,29.9,27.35,43.32,44.15,14.5,18.22,26.29,37.39,35.18,57.34,8.89,19.86,15.62,39.61,19.82,59.98.51,2.55,1.02,5.1,1.53,7.65.44,2.56.73,5.16,1.1,7.74.34,2.59.69,5.18,1.04,7.77.18,2.61.36,5.24.54,7.87.15,2.63.39,5.26.45,7.91-.01,2.65-.02,5.32-.03,7.99.01,5.34-.2,10.74-.75,16.17-.18,2.08-.39,4.39-.6,6.86-.27,2.46-.47,5.1-.8,7.83-.59,5.47-1.35,11.36-2.33,17.2-.96,5.84-2.07,11.64-3.29,16.93-1.23,5.29-2.45,10.09-3.59,13.95-1.15,5.28-1.7,8.64-1.76,10.71-.06,2.07.38,2.87,1.01,2.97,1.26.21,3.29-2.39,3.57-2.85,3.81-5.89,5.95-11.65,8.08-19.23,2.1-7.6,4.25-17,7.08-30.75-.93,4.69-1.44,6.13-1.56,5.4-.15-.74.16-3.63.55-7.67.43-4.04.98-9.22,1.54-14.52.54-5.3,1.1-10.72,1.71-15.23.47-3.26.65-6.71.84-10.31.08-1.8.14-3.64.19-5.51,0-.47.01-.94.02-1.41-.02-.47-.04-.94-.06-1.42-.05-.95-.1-1.9-.14-2.87-.23-3.85-.46-7.82-.87-11.85-.57-4.01-1.19-8.09-1.84-12.22-2.97-16.47-8-33.2-13.11-48.56-1.37-3.81-2.88-7.7-4.49-11.77-1.73-4.02-3.72-8.13-5.69-12.56l-.93-2.16-1.04-2.1c-.7-1.4-1.4-2.79-2.09-4.18-1.41-2.77-2.76-5.57-4.25-8.28-1.56-2.67-3.11-5.34-4.66-7.99l-2.34-3.97c-.79-1.32-1.68-2.57-2.51-3.85-1.7-2.55-3.4-5.09-5.1-7.64l-1.28-1.9-1.37-1.84-2.75-3.66c-1.84-2.43-3.66-4.89-5.54-7.3-1.96-2.34-3.93-4.68-5.9-7.03-3.84-4.78-8.17-9.15-12.35-13.7-2.06-2.31-4.33-4.42-6.55-6.6-2.22-2.17-4.46-4.35-6.7-6.55-2.34-2.09-4.69-4.19-7.05-6.29-2.38-2.09-4.68-4.29-7.2-6.26-4.98-4.02-9.88-8.27-15.2-12.11-2.8-2.07-5.52-4.07-8.24-5.92-2.78-1.77-5.5-3.45-8.17-5.08-5.28-3.37-10.64-6.05-15.73-8.91-3.64-2.23-7.51-4.32-11.14-6.46-3.64-2.12-7.08-4.2-10.22-5.67-2.45-1.21-4.81-2.35-7.12-3.45-2.31-1.1-4.54-2.17-6.8-3.04-4.48-1.82-8.75-3.5-12.94-5.1,4.63,1.92,8.64,3.58,12.79,5.3,1.03.44,2.09.84,3.14,1.32,1.04.49,2.11.99,3.2,1.5,2.19,1.04,4.5,2.13,7.03,3.33,6.72,3.25-5.21-1.2-9.73-3.13-.5-.18-1.02-.48-1.57-.82-.56-.32-1.13-.69-1.71-1.06-1.15-.74-2.31-1.48-3.32-1.81-2.1-.92-4.16-1.71-6.27-2.49-1.05-.38-2.12-.77-3.21-1.16-1.09-.4-2.24-.72-3.41-1.11-2.05-.57-1.46-1.37-2.48-1.65-3.17-1.12-6.07-1.85-8.66-2.54-.65-.17-1.27-.34-1.88-.5-.62-.14-1.22-.29-1.79-.44-1.15-.31-2.23-.64-3.22-1.05-3.03-1.19-5.76-2.27-8.42-3.32-.85-.31-1.69-.64-2.56-.92-.87-.27-1.76-.53-2.69-.78-1.16-.26-2.37-.52-3.57-.79.85.55,1.09,1,1.29,1.43-1.68-.54-4.01-1.44-5.69-1.99,1.68.54,4.01,1.44,5.69,1.99-.21-.44-.44-.88-1.29-1.43-2.15-.49-4.39-.99-6.67-1.51-1.14-.26-2.29-.53-3.45-.8-1.17-.22-2.35-.44-3.54-.67-4.75-.88-9.54-1.88-14.18-2.71.03.03.07.07.11.11,5.39,1.14,10.58,2.55,15.99,4.46-2.35-.79-1.98-.98.77-.36.66.31,1.31.69,1.96,1.04-1.19-.3-2.4-.52-3.6-.75-1.2-.24-2.39-.49-3.56-.77-2.35-.56-4.64-1.22-6.81-2.11,0,0-2.09-.29-3.12-.43-1.48-.51-1.35-.74-1.62-1.07-1.06-.18-2.13-.37-3.2-.56.54.23,1.38.53,2.33.84.48.15.98.32,1.49.48.51.18,1.02.37,1.52.54,1.99.69,3.7,1.28,3.7,1.28Z" fill="#ffffff"/>
      <path class="st3" d="M513.92,136.7c-.7-.25-1.57-.56-2.49-.89l4.94,1.99,2.47,1,2.43,1.11c-.78-.58-1.86-1.21-3.15-1.7-1.29-.51-2.74-1.01-4.2-1.5Z" fill="#ffffff"/>
    </g>
  </g>
  <g class="st0">
    <g>
      <path class="st3" d="M619.13,615.6c-1.55,1.36-3.12,2.73-4.69,4.1.84-.63,1.67-1.25,2.58-1.83,1.09-.82,1.48-1.46,2.11-2.28Z" fill="#ffffff"/>
      <path class="st3" d="M610,623.37c-.29.24-.58.48-.85.7-.24.24-.46.47-.67.68.5-.46,1.02-.92,1.52-1.38Z" fill="#ffffff"/>
      <path class="st3" d="M601.73,630.38c1.53-1.15,2.95-2.32,4.3-3.46-1.27.92-2.7,2.04-4.3,3.46Z" fill="#ffffff"/>
      <path class="st3" d="M608.62,625.16c-.6.32-.95.41-.17-.38,0,0,.02-.02.03-.03-.79.74-1.6,1.45-2.45,2.17.96-.68,1.83-1.26,2.59-1.76Z" fill="#ffffff"/>
      <path class="st3" d="M608.62,625.16c.58-.31,1.45-.87,1.77-1.03-.53.28-1.12.63-1.77,1.03Z" fill="#ffffff"/>
      <path class="st3" d="M608.64,629.53c-.8.77-1.2-.14-2.77,1.39-3.81,3.44-7.1,6.37-10.95,9.25-1.64,1.47-5.09,2.56-6.74,4-2,1.63-5.61,4.43-7.88,6.37-2.28,1.93-3.24,2.93-.02.77,2.41-1.65,4.62-3.14,6.67-4.59,2.03-1.49,3.94-2.9,5.82-4.28,1.89-1.36,3.68-2.81,5.55-4.26,1.85-1.47,3.81-2.92,5.81-4.61,1.6-1.4,3.19-2.78,4.77-4.16,1.58-1.37,3.08-2.84,4.63-4.25,3.1-2.81,6.08-5.8,9.2-8.81,1.8-1.63,3.45-3.19,5.17-4.7-1.13.97-2.28,1.96-3.46,2.97-1.18,1.02-2.45,2.01-3.75,3.09-3.46,2.8-6.74,7.22-12.02,11.83Z" fill="#ffffff"/>
      <path class="st3" d="M651.38,582.97c-.61.9-1.83,2.72-1.83,2.72-3.71,3.2-6.8,7.23-10.13,11.09.62-.43,1.25-.88,1.9-1.32,1.95-2.17,1.98-2.59.06-.85,4.42-3.98,8.2-8.14,11.75-12.66-.43.11-.62-.14-1.75,1.02Z" fill="#ffffff"/>
      <path class="st3" d="M655.21,579.3c-.7.89-1.4,1.77-2.09,2.64.04,0,.09-.03.14-.04.69-.9,1.37-1.8,2.04-2.68l-.1.08Z" fill="#ffffff"/>
      <path class="st3" d="M583.63,644.66c-11.96,8.14-23.75,15.02-35.59,21.08-.82.63-1.36,1.15-2.64,1.68-1,.32-1.98.71-2.93,1.12-1.73.88-3.51,1.66-5.25,2.49-.6.31-1.2.63-1.81.95,0,0-.04.02-.05.03-.94.57-.58.56.09.4.72-.23,1.4-.42,1.99-.56-.37.09-1.33.41-1.99.56-.88.29-1.84.64-2.94,1.1-1.59.77-3.27,1.56-5.04,2.29,1.9-.97,3.57-1.71,5.04-2.29.99-.52,1.94-1.03,2.9-1.53.27-.16.54-.32.81-.49-3.99,1.93-8.07,3.6-12.11,5.37-.91.45-1.8.83-2.52,1.16-2.9,1.34-5.8,2.67-7.8,2.99-.73.27-1.48.55-2.22.82.15-.03.31-.06.46-.08-.34.09-.63.17-.86.23-1.56.57-3.12,1.15-4.69,1.72-1.56.59-3.14,1.15-4.73,1.67-1.98.89-4.01,1.84-6.08,2.71,0,0-1.52.21-2.28.27-.79.5-1.98,1.05-3.4,1.59,1.81-.28,3.48-.47,5-.77,2.29-.29,4.43-2.57,7.24-2.6-2.81.03-4.96,2.31-7.24,2.6-1.52.3-3.19.49-5,.77-1.48.56-3.21,1.12-4.98,1.6-1.77.46-3.6.81-5.25,1.05,1.9-.78,3.72-1.27,5.42-1.7,1.7-.43,3.3-.72,4.81-.95,1.42-.54,2.61-1.09,3.4-1.59.76-.06,2.28-.27,2.28-.27,2.07-.87,4.1-1.82,6.08-2.71-3.11,1.02-6.2,2.14-9.37,3.1-3.17.95-6.34,1.99-9.59,2.9-20.87,5.94-41.34,10.12-62.2,12.78-10.43,1.34-20.97,2.18-31.7,2.74-10.73.47-21.67.55-32.89.03-24.31-.97-47.55-4.16-69.82-9.3-22.21-5.07-43.08-11.45-63.3-19.6-20.19-8.18-39.75-18.23-58.46-31.42-7.23-4.97-17.51-12.1-27.31-19.73-4.83-3.9-9.83-7.56-14.02-11.42-2.14-1.87-4.19-3.66-6.1-5.33-.96-.83-1.88-1.64-2.76-2.41-.84-.82-1.63-1.59-2.39-2.33-8.58-7.37-11.58-8.32-12.32-7.28-.74,1.04.79,4.08,1.09,4.54,1.89,3.1,3.91,5.85,6.16,8.56.56.68,1.14,1.35,1.73,2.03.6.67,1.26,1.29,1.92,1.95,1.33,1.3,2.73,2.63,4.23,4.03,1.5,1.39,3.09,2.87,4.8,4.45.86.78,1.71,1.63,2.67,2.43.95.8,1.94,1.63,2.96,2.5,2.04,1.73,4.23,3.61,6.57,5.67,1.17,1.04,2.39,2.11,3.65,3.23,1.3,1.07,2.66,2.18,4.07,3.33-1.93-1.56-3.17-2.63-3.84-3.27-.66-.65-.73-.9-.38-.76.71.27,3.29,1.88,6.76,4.29,6.83,4.99,17.79,12.41,25.2,18.28,2.71,2.07,5.64,4.16,8.75,6.24,1.56,1.03,3.14,2.11,4.8,3.11,1.68.96,3.4,1.92,5.16,2.88,3.51,1.91,7.15,3.84,10.9,5.74,3.83,1.73,7.75,3.45,11.72,5.17,1.99.85,3.97,1.75,6.01,2.55,2.05.76,4.11,1.52,6.17,2.29,2.06.76,4.12,1.53,6.19,2.29l3.09,1.15c1.03.39,2.06.77,3.11,1.08,8.39,2.62,16.59,5.59,24.67,7.87,2.01.62,4.05,1.22,6.14,1.81,2.1.57,4.21,1.26,6.43,1.7,4.42,1,9.05,2.04,13.94,3.14,25.36,5.88,50.51,8.47,75.93,8.72,12.71.31,25.52-.26,38.51-1.32,12.99-1.07,26.17-2.71,39.65-4.99,14.29-2.51,26.5-6.29,38.1-9.99,2.12-.66,4.29-1.29,6.46-1.9,1.09-.3,2.17-.6,3.25-.9,1.07-.32,2.14-.64,3.19-.95,2.11-.62,4.16-1.23,6.12-1.81,1.95-.61,3.8-1.25,5.51-1.84,5.39-1.83,10.27-3.88,14.93-5.8,4.6-2.07,8.98-4,13.15-6.15-4.72,2.26-8.9,3.99-13.18,5.9-2.16.91-4.37,1.78-6.7,2.73-1.17.47-2.38.95-3.63,1.45-1.26.46-2.58.94-3.95,1.45-7.33,2.6,4.73-2.87,9.38-5.06.99-.49,2.38-.8,3.78-1.1,1.39-.33,2.78-.68,3.76-1.2,2.21-.92,4.3-1.88,6.4-2.92,2.08-1.08,4.19-2.19,6.47-3.38,1.92-1.09,2.09-.1,3.05-.67,3.12-1.61,5.76-3.28,8.13-4.75,2.35-1.52,4.42-2.87,6.47-3.77,3.1-1.38,5.82-2.78,8.52-4.07,1.68-.87,3.36-1.71,5.05-2.77,1.03-.69,2.1-1.41,3.16-2.13-1.03.26-1.52.13-2,0,1.61-.89,3.97-2.01,5.58-2.91-1.61.9-3.97,2.02-5.58,2.91.47.14.97.27,2,0,3.86-2.52,7.88-5.43,12.01-8.3,4.06-2.99,8.21-5.96,12.07-9.01-.05,0-.11,0-.16,0-2.32,1.69-4.63,3.35-7.08,4.84-2.45,1.49-4.91,3.02-7.61,4.32,2.3-1.18,2.18-.79-.29.81-.72.26-1.45.53-2.17.78,4.23-2.88,8.28-5.99,12.71-8.08,0,0,1.67-1.44,2.49-2.15,1.4-.82,1.51-.53,1.94-.52.9-.67,1.81-1.34,2.73-2.01-1.12.5-3.31,1.7-5.21,2.78-.95.54-1.83,1.05-2.48,1.42-.65.36-1.07.59-1.07.59Z" fill="#ffffff"/>
      <path class="st3" d="M532.38,673.54c.69-.36,1.55-.79,2.46-1.26l-2.52,1.17-2.55,1.1c-1.7.73-3.41,1.47-5.11,2.2,1.98-.37,4.85-1.79,7.73-3.21Z" fill="#ffffff"/>
    </g>
  </g>
  <g>
    <path class="st3" d="M451.01,522.08c0-4.54,1.37-19.07,2.02-22.33.38-1.9,1.03-3.77,1.35-5.69.12-.72.33-.84.49-1.5s.32-1.18.53-1.42c.49-.57,2.28-5.9,2.93-7.22,10.97-22.44,34.67-29.73,58.35-26.09,8.79,1.35,20.82,6.42,22.67,16.18,1.89,9.93-5.86,13.81-14.51,13.89-.02-9.19-.75-21.33-9.71-26.35-6.35-3.55-16.42-3.19-23.14-.78-18.27,6.54-20.15,44.75-21.29,61.31h-19.69Z" fill="#ffffff"/>
    <path class="st3" d="M470.7,522.08c0,16.28,8.68,36.87,20.86,43.65,9.71,5.41,24.86,5.82,34.59.26,8.19-4.68,12.69-13.82,14.84-22.68,6.08,1.79,5.43,8.67,2.84,13.24-9.14,16.2-38.18,17.24-53.99,13.01-18.69-5-38.82-26.61-38.82-47.48h19.69Z" fill="#ffffff"/>
  </g>
  <path class="st4" d="M208.35,514.88c6.53.38,13.5-1.37,20-.64,2.41.27,3.14,1.71.58,2.48-6.17.66-13.7-.08-19.67.61-1.05.12-2.41.3-3.04,1.26-.35.54-4.44,11.45-4.5,12.09-.56,6.13,4.7,13.94,11.26,14.31,13.12.73,23.1-14.88,34.25-18.57,1.17-.39,2.22-1,3.24.11l.28,1.86c-6.83,1.2-17.36,9.92-12.58,17.21,3.78-.24,9.51-14.5,10.45-14.74,1.51-.39,3.06,6.58,4.08,8.19,5.7,9,17.51,4.78,24.89.51,4.22-2.44,17.66-13.93,21.4-13.65.53.04.93.21,1.26.62l.28,1.86c-6.91,1.01-17.51,9.95-12.57,17.21,2.53.56,8.85-12.67,10.43-14.74,1.65-.39,2.25,4.47,2.84,5.75,5.92,12.79,19.11,7.31,28.38,1.51,1.41-.88,6.44-4.4,7.38-5.39.71-.75.15-1.76.72-1.88,4.23-.87.03,6.52.92,8.6.34.4,6.77-4.91,7.82-5.38,9.53-4.28,8.9,8.35,18.34,9.63,15.64,2.12,24.99-16.99,34.41-17.76,1.56-.13,2.76.75,1.51,2.18-1.02,1.16-4.86,1.8-6.75,3.08-3.73,2.54-9.83,10.32-5.27,14.26,4.07-.86,8.34-13.74,10.46-14.6,1.1-.45.96.69,1.19,1.22,1.97,4.48,1.78,8.43,6.95,10.89,10.05,4.78,22.3-4.28,29.95-10.26l.95,2.66c-8.45,7.07-23.89,16.74-34.38,8.63-1.48-1.14-3.42-4.58-4.66-4.58-2.51.01-7.07,11.23-12.33,8.05-2.55-1.54-2.18-5.46-2.12-8.02-8.12,5.77-19.47,11.25-27.95,3.06-4.27-4.12-3.47-9.36-11.05-4.89-4.01,2.36-6.44,6.84-10.45,9.21-1.35.23-.95-.59-.92-1.53.07-2.69,1.7-5.61,1.52-8.31-9.58,6.64-22.76,15.11-33.62,6.15-1.09-.9-2.2-3.7-3.86-3.71-1.91-.01-6.31,10-11.53,8.51-3.37-.96-2.8-7.13-2.59-9.72-8.12,6.4-21.89,13.16-31.04,5.22-1.45-1.26-2.78-4.21-4.58-4.03s-4.06,5.21-6.18,6.79c-7.01,5.23-9.18-1.88-7.68-7.98-11.51,8.97-28.82,16.76-34.72-2.46-8.63,7.02-22.42,16.64-32.55,6.76-2.08-2.03-3.21-5.69-6.18-6.77-4.99-.48-10.64,8.27-14.08,10.49-.75.49-1.22.76-2.18.58l1.54-11.05c-11.72,8.77-31.05,16.55-45.2,9.55-14.11-6.98,5.52-24.36,11.69-19.05,6.51,5.6-9.31,12.94-14.11,10.73-.92,4.99,5.88,7.11,9.8,7.71,14.4,2.21,27.42-5.08,38.9-12.65.42-.27.35-.95.78-1.23,4.26-.57-.03,6.35.9,8.62.34.4,7.12-5.12,8.76-5.67,7.9-2.62,7.72,4.88,12.53,8.03,6.35,4.15,13.83,1.28,19.67-2.25,1.68-1.02,7.43-5.12,8.22-6.52,1.6-2.81.04-6.3-.06-9.22-.05-1.34,1.55-3.95.06-4.98l-18.14.98-1.27-.61v-1.89s19.75-2.37,19.75-2.37c2.63-7.53,2.36-18.55,9.8-23.44,5.59-.54,2.77,10.81,2.07,13.81-.75,3.21-2.62,6.19-2.41,9.57ZM209.58,494.62c-2.27-1.76-5.4,8.92-5.69,9.97-.37,1.37-3.07,10.81-.76,10.89,2.8-1.24,3.26-4.75,4.16-7.5.67-2.04,3.69-12.27,2.29-13.37ZM204.05,517.96l-2.8.57-.27,4.95c2.02.58,3.42-5.19,3.07-5.52ZM111.88,528.4c-4.51-.81-9.32,1.93-11.05,6.14,1.51,1.28,11.97-2.58,11.05-6.14Z" fill="#ffffff"/>
  <path class="st4" d="M705.25,524.9c-.67.8-1.42,2.42-1.19,3.52.74,2.68,7.89,4.34,8.17,9.58.08,1.4-1.71,4.08-.05,4.49,3.65.9,15.36-5.96,18.63-8.31,1.1-.79,3.66-4.31,4.97-3.32,1.72,1.3-2.59,4.87-3.74,5.78-7.48,5.94-23.24,12.22-32.51,8.64-2.71-1.05-5.88-3.94-5.53-7.05,2.37-.2,3.4,2.33,5.59,3.31,2.93,1.32,8.66,1.13,10.09-2.11,1.38-3.12-3.75-5.2-5.55-6.73-1.12-.96-1.84-3.1-3.06-3.11-9.49,7.89-23.29,21.46-36.84,17.81-4.25-1.14-8.43-4.38-8.33-9.17l-12.3,7.05c-7.92,2.8-13.37,1.92-19.02-4.3-1.29-1.42-2.57-5.01-4.64-5.21-4.93-.49-11.67,8.5-15.34,11.07-1.12.11-.93.02-.95-.94-.07-2.78,1.03-6.23,1.86-8.89-4.31,1.91-7.86,5.23-12.16,7.19-6.53,2.98-14.84,4.56-20.97-.18-1.48-1.14-3.42-4.58-4.66-4.58-2.51.01-7.06,11.22-12.33,8.05-4.7-2.83-1.07-11.18,1.59-14.46,1.67-2.05,10.59-9.33,12.59-6.47,1.42,2.04-5.49,3.6-7.03,4.65-4.28,2.91-8.51,9.07-6.18,14.39,4.94.08,8.97-13.76,11.37-14.74,1.1-.45.96.69,1.19,1.22,1.97,4.48,1.78,8.43,6.95,10.89,9.8,4.67,22.5-4.2,29.96-10.28.91-.74.88-2.93,2.75-1.49.4,2.27-.65,4.44-.84,6.54-.05.54-.57,1.5.53,1.71.64.13,5.65-4.95,7.83-5.67,8.73-2.86,7.87,5.24,13.87,8.53s13.95.48,19.35-2.96c3.86-2.45,5.75-4.83,8.28-8.31,1.12-1.54,2.95-2.66,2.53.07-.85,5.56-4.99,10.74,4,13.28,15.71,4.45,32.48-15.3,43.05-24.6,4.19,1.73-.86,3.78-1.96,5.1Z" fill="#ffffff"/>
  <path class="st4" d="M207.84,587.36c-.81.82-3.78-4.54-7.97-1.52s-1.2,10.5,4.47,8.76c1.38-.42,2.04-2.9,4.12-2.32-3.86,6.93-13.57,3.51-11.52-4.46,1.24-4.81,9.63-5.8,10.9-.46Z" fill="#ffffff"/>
  <path class="st4" d="M315.99,595.96l3.07-4.28c-10.01-2.66.71-12.78,3.85-5.36,1.28,3.02-5.42,10.81-6.92,9.64ZM318.27,584.99c-2.85.79-2.05,6.35,1.58,5.35,3.9-1.07,1.82-6.29-1.58-5.35Z" fill="#ffffff"/>
  <path class="st4" d="M365.15,594.73c1.34.43,5.4-1.13,4.91,1.23h-7.98c.87-2.07,6.22-5.53,6.67-7.2.78-2.88-2.42-5.03-4.58-3.31-1.14.92-.15,2.95-2.08,2.52-.17-5.99,8.59-5.6,7.98.25-.28,2.7-3.68,4.27-4.91,6.5Z" fill="#ffffff"/>
  <path class="st4" d="M394.03,583.68c.5,2.42-2.89.52-4.33,1.5l-1.19,2.49c2.52.49,5.28.49,5.58,3.67.7,7.55-9.25,3.91-7.42,2.16,1.23-.2,1.63,1.07,2.8,1.24,1.94.29,3.4-.79,3.4-2.78,0-4.63-5.07-1.19-5.55-3.13l1.12-4.8,5.6-.35Z" fill="#ffffff"/>
  <path class="st4" d="M156.23,583.68c2.23.38,6.02-1.09,7.37,1.22h-6.15s0,4.31,0,4.31c.22.22,7.92-.6,5.53,1.22h-5.53c-.61.61,1.3,6.17-1.23,5.53v-12.28Z" fill="#ffffff"/>
  <path class="st4" d="M346.1,582.45c-1.93,4.8-3.65,11.25-6.11,15.69-.47.85-.52,1.77-1.87,1.5,2.26-4.97,3.9-11.28,6.44-16,.46-.86-.05-1.51,1.54-1.19Z" fill="#ffffff"/>
  <path class="st4" d="M619.43,521.03c.46,2.75-2.18,4.81-4.59,5.53-3.28-1.81,3.93-6.22,4.59-5.53Z" fill="#ffffff"/>
  <polygon class="st4" points="299.4 583.68 299.4 595.96 298.17 595.96 298.17 584.91 296.33 584.9 296.33 584.3 299.4 583.68" fill="#ffffff"/>
  <rect class="st4" x="242.26" y="583.68" width="1.23" height="12.28" fill="#ffffff"/>
  <g>
    <path class="st4" d="M167.97,595.51" fill="#ffffff"/>
    <path d="M167.97,596.13c.8,0,.81-1.25,0-1.25s-.81,1.25,0,1.25h0Z" fill="#ffffff"/>
  </g>
  <g>
    <path class="st4" d="M219.37,595.51" fill="#ffffff"/>
    <path d="M219.37,596.13c.8,0,.81-1.25,0-1.25s-.81,1.25,0,1.25h0Z" fill="#ffffff"/>
  </g>
  <g>
    <path class="st4" d="M255.24,595.51" fill="#ffffff"/>
    <path d="M255.24,596.13c.8,0,.81-1.25,0-1.25s-.81,1.25,0,1.25h0Z" fill="#ffffff"/>
  </g>
  <g>
    <path class="st3" d="M31.28,572.33H11.06l62.96-113.59h-39.3c-5.92.5-12.64.88-17.39,4.87-6.68,5.62-6.93,16.48-7.04,24.55h-1.79s1.03-31.21,1.03-31.21h84.33l.37,1.39-62.95,113.99Z" fill="#ffffff"/>
    <path class="st3" d="M32.87,569.47h39.3c5.92-.5,12.64-.88,17.39-4.87,6.68-5.62,6.93-16.48,7.04-24.55h1.79s-1.03,31.21-1.03,31.21H13.04" fill="#ffffff"/>
  </g>
</svg>